<?xml version="1.0" encoding="UTF-8"?>
<svg xmlns="http://www.w3.org/2000/svg" xmlns:xlink="http://www.w3.org/1999/xlink" width="95px" height="95px" viewBox="0 0 95 95" version="1.1">
<g id="surface1">
<path style=" stroke:none;fill-rule:nonzero;fill:rgb(100%,100%,100%);fill-opacity:1;" d="M 0.1875 84.421875 C 0.1875 56.351562 0.1875 28.28125 0.1875 0.199219 C 31.835938 0.199219 63.484375 0.199219 95.1875 0.199219 C 95.1875 28.207031 95.1875 56.230469 95.117188 84.320312 C 94.628906 84.214844 94.207031 83.894531 93.78125 83.890625 C 89.082031 83.855469 84.382812 83.867188 79.683594 83.867188 C 79.445312 83.867188 79.203125 83.867188 78.964844 83.867188 C 80.566406 83.21875 82.179688 82.71875 83.78125 82.195312 C 85.652344 81.582031 86.71875 79.609375 86.164062 77.722656 C 85.515625 75.496094 84.832031 73.277344 84.144531 71.0625 C 82.613281 66.121094 81.070312 61.183594 79.523438 56.246094 C 77.945312 51.191406 76.351562 46.144531 74.777344 41.09375 C 73.582031 37.257812 72.40625 33.417969 71.210938 29.585938 C 69.3125 23.511719 67.40625 17.441406 65.492188 11.375 C 64.996094 9.792969 62.957031 8.1875 60.902344 8.875 C 57.941406 9.867188 54.929688 10.699219 51.941406 11.605469 C 50.613281 12.011719 49.292969 12.433594 47.964844 12.847656 C 47.855469 12.402344 47.746094 12.058594 47.691406 11.707031 C 47.445312 10.148438 46.007812 8.90625 44.414062 8.90625 C 39.808594 8.90625 35.203125 8.875 30.59375 8.9375 C 29.875 8.945312 29.160156 9.550781 28.445312 9.546875 C 27.71875 9.546875 26.996094 8.945312 26.269531 8.9375 C 21.753906 8.875 17.242188 8.90625 12.726562 8.90625 C 10.570312 8.90625 9.09375 10.398438 9.09375 12.578125 C 9.089844 35.980469 9.09375 59.382812 9.09375 82.789062 C 9.09375 83.144531 9.09375 83.496094 9.09375 83.867188 C 6.582031 83.867188 4.199219 83.890625 1.820312 83.851562 C 1.175781 83.839844 0.636719 83.964844 0.1875 84.421875 Z M 0.1875 84.421875 "/>
<path style=" stroke:none;fill-rule:nonzero;fill:rgb(0%,0%,0%);fill-opacity:1;" d="M 0.1875 84.507812 C 0.636719 83.964844 1.175781 83.839844 1.820312 83.851562 C 4.199219 83.890625 6.582031 83.867188 9.09375 83.867188 C 9.09375 83.496094 9.09375 83.144531 9.09375 82.789062 C 9.09375 59.382812 9.089844 35.980469 9.09375 12.578125 C 9.09375 10.398438 10.570312 8.90625 12.726562 8.90625 C 17.242188 8.90625 21.753906 8.875 26.269531 8.9375 C 26.996094 8.945312 27.71875 9.546875 28.445312 9.546875 C 29.160156 9.550781 29.875 8.945312 30.59375 8.9375 C 35.203125 8.875 39.808594 8.90625 44.414062 8.90625 C 46.007812 8.90625 47.445312 10.148438 47.691406 11.707031 C 47.746094 12.058594 47.855469 12.402344 47.964844 12.847656 C 49.292969 12.433594 50.613281 12.011719 51.941406 11.605469 C 54.929688 10.699219 57.941406 9.867188 60.902344 8.875 C 62.957031 8.1875 64.996094 9.792969 65.492188 11.375 C 67.40625 17.441406 69.3125 23.511719 71.210938 29.585938 C 72.40625 33.417969 73.582031 37.257812 74.777344 41.09375 C 76.351562 46.144531 77.945312 51.191406 79.523438 56.246094 C 81.070312 61.183594 82.613281 66.121094 84.144531 71.0625 C 84.832031 73.277344 85.515625 75.496094 86.164062 77.722656 C 86.71875 79.609375 85.652344 81.582031 83.78125 82.195312 C 82.179688 82.71875 80.566406 83.21875 78.964844 83.867188 C 79.203125 83.867188 79.445312 83.867188 79.683594 83.867188 C 84.382812 83.867188 89.082031 83.855469 93.78125 83.890625 C 94.207031 83.894531 94.628906 84.214844 95.117188 84.40625 C 95.1875 84.863281 95.1875 85.304688 95.117188 85.847656 C 94.738281 86.582031 94.183594 86.65625 93.550781 86.65625 C 62.988281 86.648438 32.425781 86.648438 1.867188 86.664062 C 1.144531 86.664062 0.621094 86.4375 0.1875 85.90625 C 0.1875 85.46875 0.1875 85.027344 0.1875 84.507812 M 59.746094 52.957031 C 60.390625 55.03125 61.035156 57.105469 61.683594 59.179688 C 63.265625 64.234375 64.847656 69.285156 66.425781 74.335938 C 67.296875 77.117188 68.144531 79.90625 69.039062 82.683594 C 69.226562 83.269531 69.640625 83.546875 70.34375 83.324219 C 74.34375 82.0625 78.351562 80.835938 82.359375 79.59375 C 83.335938 79.292969 83.53125 78.910156 83.226562 77.933594 C 82.050781 74.15625 80.871094 70.382812 79.691406 66.605469 C 78.152344 61.664062 76.613281 56.722656 75.066406 51.785156 C 73.429688 46.5625 71.78125 41.34375 70.140625 36.125 C 69.472656 34.003906 68.816406 31.878906 68.132812 29.6875 C 67.304688 29.953125 66.554688 30.191406 65.800781 30.429688 C 62.054688 31.601562 58.3125 32.789062 54.558594 33.933594 C 54.046875 34.089844 53.9375 34.210938 54.105469 34.746094 C 56.003906 40.757812 57.871094 46.78125 59.746094 52.957031 M 11.875 83.191406 C 11.753906 83.796875 12.054688 83.882812 12.589844 83.878906 C 16.921875 83.859375 21.25 83.867188 25.578125 83.867188 C 26.066406 83.867188 26.550781 83.867188 27.046875 83.867188 C 27.046875 68.242188 27.046875 52.703125 27.046875 37.15625 C 21.976562 37.15625 16.953125 37.15625 11.875 37.15625 C 11.875 52.46875 11.875 67.738281 11.875 83.191406 M 29.875 65.589844 C 29.875 71.667969 29.875 77.746094 29.875 83.8125 C 34.941406 83.8125 39.902344 83.8125 44.847656 83.8125 C 44.847656 71.5 44.847656 59.242188 44.847656 46.996094 C 39.835938 46.996094 34.875 46.996094 29.875 46.996094 C 29.875 53.167969 29.875 59.285156 29.875 65.589844 M 47.871094 37.574219 C 47.871094 52.988281 47.871094 68.402344 47.871094 83.828125 C 54.089844 83.828125 60.214844 83.828125 66.355469 83.828125 C 60.230469 64.226562 54.117188 44.671875 48.003906 25.113281 C 47.960938 25.125 47.914062 25.136719 47.871094 25.148438 C 47.871094 29.226562 47.871094 33.308594 47.871094 37.574219 M 29.875 31.636719 C 29.875 33.632812 29.875 35.628906 29.875 37.613281 C 34.941406 37.613281 39.902344 37.613281 44.847656 37.613281 C 44.847656 33.21875 44.847656 28.875 44.847656 24.546875 C 39.835938 24.546875 34.875 24.546875 29.875 24.546875 C 29.875 26.882812 29.875 29.167969 29.875 31.636719 M 26.300781 11.730469 C 22.039062 11.71875 17.777344 11.703125 13.515625 11.691406 C 12.191406 11.6875 11.878906 12.003906 11.875 13.371094 C 11.871094 15.410156 11.875 17.449219 11.875 19.488281 C 11.875 20.21875 11.875 20.949219 11.875 21.65625 C 17.007812 21.65625 22.027344 21.65625 27.089844 21.65625 C 27.089844 18.765625 27.117188 15.929688 27.058594 13.089844 C 27.050781 12.671875 26.640625 12.261719 26.300781 11.730469 M 44.902344 14.019531 C 44.902344 13.585938 44.898438 13.152344 44.902344 12.722656 C 44.910156 12.058594 44.5625 11.699219 43.925781 11.695312 C 39.628906 11.683594 35.332031 11.671875 31.035156 11.707031 C 30.292969 11.710938 29.828125 12.113281 29.859375 12.992188 C 29.910156 14.378906 29.875 15.773438 29.875 17.164062 C 29.875 18.664062 29.875 20.167969 29.875 21.65625 C 34.9375 21.65625 39.898438 21.65625 44.902344 21.65625 C 44.902344 19.136719 44.902344 16.671875 44.902344 14.019531 M 54.289062 22.265625 C 57.78125 21.1875 61.269531 20.109375 64.804688 19.015625 C 64.222656 17.1875 63.628906 15.414062 63.09375 13.617188 C 62.539062 11.769531 62.746094 11.273438 60.386719 12.046875 C 56.65625 13.269531 52.90625 14.425781 49.152344 15.566406 C 48.539062 15.753906 48.292969 16.113281 48.445312 16.632812 C 49.113281 18.902344 49.839844 21.152344 50.566406 23.484375 C 51.828125 23.054688 52.980469 22.664062 54.289062 22.265625 M 55.101562 30.71875 C 56.066406 30.421875 57.03125 30.132812 57.996094 29.832031 C 60.914062 28.917969 63.835938 28.011719 66.742188 27.0625 C 66.910156 27.007812 67.089844 26.550781 67.039062 26.335938 C 66.816406 25.414062 66.523438 24.507812 66.234375 23.601562 C 65.660156 21.78125 65.652344 21.78125 63.824219 22.359375 C 59.691406 23.660156 55.554688 24.964844 51.417969 26.269531 C 51.949219 27.941406 52.480469 29.628906 53.007812 31.292969 C 53.726562 31.109375 54.347656 30.953125 55.101562 30.71875 M 44.226562 40.449219 C 39.449219 40.449219 34.671875 40.449219 29.9375 40.449219 C 29.9375 41.765625 29.9375 42.953125 29.9375 44.097656 C 34.960938 44.097656 39.921875 44.097656 44.902344 44.097656 C 44.902344 43.011719 44.925781 41.992188 44.878906 40.976562 C 44.871094 40.792969 44.570312 40.625 44.226562 40.449219 M 26.773438 24.492188 C 21.8125 24.492188 16.847656 24.492188 11.941406 24.492188 C 11.941406 25.753906 11.941406 26.882812 11.941406 27.949219 C 17.035156 27.949219 22.054688 27.949219 27.160156 27.949219 C 27.085938 26.753906 27.019531 25.628906 26.773438 24.492188 M 23.472656 34.328125 C 24.664062 34.328125 25.859375 34.328125 27.035156 34.328125 C 27.035156 33.09375 27.035156 31.964844 27.035156 30.855469 C 21.960938 30.855469 16.9375 30.855469 11.929688 30.855469 C 11.929688 32.035156 11.929688 33.160156 11.929688 34.328125 C 15.75 34.328125 19.519531 34.328125 23.472656 34.328125 Z M 23.472656 34.328125 "/>
<path style=" stroke:none;fill-rule:nonzero;fill:rgb(100%,100%,100%);fill-opacity:1;" d="M 0.1875 85.996094 C 0.621094 86.4375 1.144531 86.664062 1.867188 86.664062 C 32.425781 86.648438 62.988281 86.648438 93.550781 86.65625 C 94.183594 86.65625 94.738281 86.582031 95.117188 85.929688 C 95.1875 89 95.1875 92.089844 95.1875 95.175781 C 63.519531 95.175781 31.851562 95.175781 0.1875 95.175781 C 0.1875 92.140625 0.1875 89.109375 0.1875 85.996094 Z M 0.1875 85.996094 "/>
<path style=" stroke:none;fill-rule:nonzero;fill:rgb(100%,100%,100%);fill-opacity:1;" d="M 59.746094 52.882812 C 57.871094 46.78125 56.003906 40.757812 54.105469 34.746094 C 53.9375 34.210938 54.046875 34.089844 54.558594 33.933594 C 58.3125 32.789062 62.054688 31.601562 65.800781 30.429688 C 66.554688 30.191406 67.304688 29.953125 68.132812 29.6875 C 68.816406 31.878906 69.472656 34.003906 70.140625 36.125 C 71.78125 41.34375 73.429688 46.5625 75.066406 51.785156 C 76.613281 56.722656 78.152344 61.664062 79.691406 66.605469 C 80.871094 70.382812 82.050781 74.15625 83.226562 77.933594 C 83.53125 78.910156 83.335938 79.292969 82.359375 79.59375 C 78.351562 80.835938 74.34375 82.0625 70.34375 83.324219 C 69.640625 83.546875 69.226562 83.269531 69.039062 82.683594 C 68.144531 79.90625 67.296875 77.117188 66.425781 74.335938 C 64.847656 69.285156 63.265625 64.234375 61.683594 59.179688 C 61.035156 57.105469 60.390625 55.03125 59.746094 52.882812 Z M 59.746094 52.882812 "/>
<path style=" stroke:none;fill-rule:nonzero;fill:rgb(100%,100%,100%);fill-opacity:1;" d="M 11.875 83.097656 C 11.875 67.738281 11.875 52.46875 11.875 37.15625 C 16.953125 37.15625 21.976562 37.15625 27.046875 37.15625 C 27.046875 52.703125 27.046875 68.242188 27.046875 83.867188 C 26.550781 83.867188 26.066406 83.867188 25.578125 83.867188 C 21.25 83.867188 16.921875 83.859375 12.589844 83.878906 C 12.054688 83.882812 11.753906 83.796875 11.875 83.097656 Z M 11.875 83.097656 "/>
<path style=" stroke:none;fill-rule:nonzero;fill:rgb(100%,100%,100%);fill-opacity:1;" d="M 29.875 65.5 C 29.875 59.285156 29.875 53.167969 29.875 46.996094 C 34.875 46.996094 39.835938 46.996094 44.847656 46.996094 C 44.847656 59.242188 44.847656 71.5 44.847656 83.8125 C 39.902344 83.8125 34.941406 83.8125 29.875 83.8125 C 29.875 77.746094 29.875 71.667969 29.875 65.5 Z M 29.875 65.5 "/>
<path style=" stroke:none;fill-rule:nonzero;fill:rgb(100%,100%,100%);fill-opacity:1;" d="M 47.871094 37.480469 C 47.871094 33.308594 47.871094 29.226562 47.871094 25.148438 C 47.914062 25.136719 47.960938 25.125 48.003906 25.113281 C 54.117188 44.671875 60.230469 64.226562 66.355469 83.828125 C 60.214844 83.828125 54.089844 83.828125 47.871094 83.828125 C 47.871094 68.402344 47.871094 52.988281 47.871094 37.480469 Z M 47.871094 37.480469 "/>
<path style=" stroke:none;fill-rule:nonzero;fill:rgb(100%,100%,100%);fill-opacity:1;" d="M 29.875 31.542969 C 29.875 29.167969 29.875 26.882812 29.875 24.546875 C 34.875 24.546875 39.835938 24.546875 44.847656 24.546875 C 44.847656 28.875 44.847656 33.21875 44.847656 37.613281 C 39.902344 37.613281 34.941406 37.613281 29.875 37.613281 C 29.875 35.628906 29.875 33.632812 29.875 31.542969 Z M 29.875 31.542969 "/>
<path style=" stroke:none;fill-rule:nonzero;fill:rgb(100%,100%,100%);fill-opacity:1;" d="M 26.355469 11.789062 C 26.640625 12.261719 27.050781 12.671875 27.058594 13.089844 C 27.117188 15.929688 27.089844 18.765625 27.089844 21.65625 C 22.027344 21.65625 17.007812 21.65625 11.875 21.65625 C 11.875 20.949219 11.875 20.21875 11.875 19.488281 C 11.875 17.449219 11.871094 15.410156 11.875 13.371094 C 11.878906 12.003906 12.191406 11.6875 13.515625 11.691406 C 17.777344 11.703125 22.039062 11.71875 26.355469 11.789062 Z M 26.355469 11.789062 "/>
<path style=" stroke:none;fill-rule:nonzero;fill:rgb(100%,100%,100%);fill-opacity:1;" d="M 44.902344 14.109375 C 44.902344 16.671875 44.902344 19.136719 44.902344 21.65625 C 39.898438 21.65625 34.9375 21.65625 29.875 21.65625 C 29.875 20.167969 29.875 18.664062 29.875 17.164062 C 29.875 15.773438 29.910156 14.378906 29.859375 12.992188 C 29.828125 12.113281 30.292969 11.710938 31.035156 11.707031 C 35.332031 11.671875 39.628906 11.683594 43.925781 11.695312 C 44.5625 11.699219 44.910156 12.058594 44.902344 12.722656 C 44.898438 13.152344 44.902344 13.585938 44.902344 14.109375 Z M 44.902344 14.109375 "/>
<path style=" stroke:none;fill-rule:nonzero;fill:rgb(100%,100%,100%);fill-opacity:1;" d="M 54.210938 22.269531 C 52.980469 22.664062 51.828125 23.054688 50.566406 23.484375 C 49.839844 21.152344 49.113281 18.902344 48.445312 16.632812 C 48.292969 16.113281 48.539062 15.753906 49.152344 15.566406 C 52.90625 14.425781 56.65625 13.269531 60.386719 12.046875 C 62.746094 11.273438 62.539062 11.769531 63.09375 13.617188 C 63.628906 15.414062 64.222656 17.1875 64.804688 19.015625 C 61.269531 20.109375 57.78125 21.1875 54.210938 22.269531 Z M 54.210938 22.269531 "/>
<path style=" stroke:none;fill-rule:nonzero;fill:rgb(100%,100%,100%);fill-opacity:1;" d="M 55.035156 30.753906 C 54.347656 30.953125 53.726562 31.109375 53.007812 31.292969 C 52.480469 29.628906 51.949219 27.941406 51.417969 26.269531 C 55.554688 24.964844 59.691406 23.660156 63.824219 22.359375 C 65.652344 21.78125 65.660156 21.78125 66.234375 23.601562 C 66.523438 24.507812 66.816406 25.414062 67.039062 26.335938 C 67.089844 26.550781 66.910156 27.007812 66.742188 27.0625 C 63.835938 28.011719 60.914062 28.917969 57.996094 29.832031 C 57.03125 30.132812 56.066406 30.421875 55.035156 30.753906 Z M 55.035156 30.753906 "/>
<path style=" stroke:none;fill-rule:nonzero;fill:rgb(100%,100%,100%);fill-opacity:1;" d="M 44.316406 40.449219 C 44.570312 40.625 44.871094 40.792969 44.878906 40.976562 C 44.925781 41.992188 44.902344 43.011719 44.902344 44.097656 C 39.921875 44.097656 34.960938 44.097656 29.9375 44.097656 C 29.9375 42.953125 29.9375 41.765625 29.9375 40.449219 C 34.671875 40.449219 39.449219 40.449219 44.316406 40.449219 Z M 44.316406 40.449219 "/>
<path style=" stroke:none;fill-rule:nonzero;fill:rgb(100%,100%,100%);fill-opacity:1;" d="M 26.863281 24.496094 C 27.019531 25.628906 27.085938 26.753906 27.160156 27.949219 C 22.054688 27.949219 17.035156 27.949219 11.941406 27.949219 C 11.941406 26.882812 11.941406 25.753906 11.941406 24.492188 C 16.847656 24.492188 21.8125 24.492188 26.863281 24.496094 Z M 26.863281 24.496094 "/>
<path style=" stroke:none;fill-rule:nonzero;fill:rgb(100%,100%,100%);fill-opacity:1;" d="M 23.378906 34.328125 C 19.519531 34.328125 15.75 34.328125 11.929688 34.328125 C 11.929688 33.160156 11.929688 32.035156 11.929688 30.855469 C 16.9375 30.855469 21.960938 30.855469 27.035156 30.855469 C 27.035156 31.964844 27.035156 33.09375 27.035156 34.328125 C 25.859375 34.328125 24.664062 34.328125 23.378906 34.328125 Z M 23.378906 34.328125 "/>
</g>
</svg>
