<svg version="1.1" id="Layer_1" xmlns="http://www.w3.org/2000/svg" xmlns:xlink="http://www.w3.org/1999/xlink" x="0px" y="0px"
	 width="100%" viewBox="0 0 820 837" enable-background="new 0 0 820 837" xml:space="preserve">
<path fill="#F6F6F6" opacity="1.000000" stroke="none" 
	d="
M476.000000,838.000000 
	C317.333374,838.000000 159.166763,838.000000 1.000106,838.000000 
	C1.000071,559.000122 1.000071,280.000275 1.000035,1.000293 
	C274.333130,1.000196 547.666260,1.000196 820.999512,1.000098 
	C820.999695,279.999725 820.999695,558.999451 820.999878,837.999573 
	C706.166687,838.000000 591.333313,838.000000 476.000000,838.000000 
M189.787125,49.175026 
	C180.711685,55.252266 175.033966,63.824501 173.479370,74.447952 
	C171.197159,90.043701 168.670380,105.745277 168.321182,121.447868 
	C167.841034,143.038681 168.794601,164.702881 170.093018,186.277908 
	C171.039261,202.001312 172.967438,217.722656 175.467484,233.282700 
	C179.655899,259.350952 184.710800,285.279297 189.169662,311.306152 
	C189.476089,313.094879 188.445847,315.950409 187.046188,317.062012 
	C175.066849,326.576141 162.901627,335.858826 150.710770,345.103607 
	C114.632759,372.462891 78.435944,399.676056 48.440926,434.032532 
	C36.142673,448.119019 25.173571,463.153625 16.186708,479.563721 
	C9.184261,492.350311 10.568172,504.820404 18.247299,516.888428 
	C26.366262,529.647705 38.388035,537.464783 51.879387,543.337646 
	C94.580238,561.925720 139.501144,572.534668 185.256088,579.961792 
	C211.310654,584.191040 237.433014,588.018433 263.569946,591.707031 
	C267.299805,592.233398 268.535126,593.843445 269.578949,596.992065 
	C282.304993,635.378540 294.615143,673.915649 310.824158,711.047180 
	C323.174316,739.338867 337.207062,766.703735 355.052338,791.977356 
	C361.986694,801.798340 370.705383,809.764465 381.707062,814.738403 
	C390.146851,818.554077 399.126556,821.553589 408.021729,816.337524 
	C416.157501,811.566833 424.567596,806.855957 431.595245,800.682617 
	C450.114380,784.414673 464.346100,764.412964 477.922363,744.016479 
	C506.709747,700.767456 529.764771,654.411011 551.353699,607.289856 
	C553.209106,603.240173 555.358582,601.721008 559.954773,601.733398 
	C580.765625,601.789307 601.610535,602.018555 622.381165,600.963867 
	C648.747437,599.624939 675.095764,597.534546 701.373535,594.967712 
	C724.571289,592.701782 747.376892,587.987244 769.456238,580.287048 
	C783.848999,575.267578 796.686401,567.648926 806.490356,555.803833 
	C808.835999,552.969788 810.634949,548.796875 810.770508,545.168152 
	C811.489563,525.926514 803.772034,509.013916 794.234619,493.067719 
	C773.637146,458.629639 748.183899,427.845123 720.357117,399.099091 
	C699.736877,377.797546 678.254333,357.327148 656.997131,336.649750 
	C653.878967,333.616638 652.953369,331.204010 654.428162,326.778320 
	C667.103271,288.742706 679.181396,250.511810 687.733337,211.291336 
	C694.685303,179.409012 700.845703,147.348587 698.811951,114.490807 
	C698.265686,105.665726 696.217102,96.684135 693.281860,88.328072 
	C690.466797,80.313797 685.198425,73.273552 676.790588,69.832825 
	C665.864441,65.361534 654.320190,65.085960 642.844360,66.346085 
	C624.075989,68.406998 606.092407,73.845467 588.289246,79.981728 
	C550.583984,92.977722 514.360291,109.325256 479.108612,127.888420 
	C463.048615,136.345444 447.068420,144.954254 431.070709,153.529037 
	C428.604523,154.850906 426.585480,155.575836 423.817017,153.513489 
	C409.542603,142.879974 395.142792,132.411194 380.666748,122.052643 
	C339.518585,92.608482 296.358551,66.651222 249.264679,47.771656 
	C229.679840,39.920254 209.857132,38.319565 189.787125,49.175026 
z"/>
<path fill="#FD7EC1" opacity="1.000000" stroke="none" 
	d="
M190.110565,49.007778 
	C209.857132,38.319565 229.679840,39.920254 249.264679,47.771656 
	C296.358551,66.651222 339.518585,92.608482 380.666748,122.052643 
	C395.142792,132.411194 409.542603,142.879974 423.817017,153.513489 
	C426.585480,155.575836 428.604523,154.850906 431.070709,153.529037 
	C447.068420,144.954254 463.048615,136.345444 479.108612,127.888420 
	C514.360291,109.325256 550.583984,92.977722 588.289246,79.981728 
	C606.092407,73.845467 624.075989,68.406998 642.844360,66.346085 
	C654.320190,65.085960 665.864441,65.361534 676.790588,69.832825 
	C685.198425,73.273552 690.466797,80.313797 693.281860,88.328072 
	C696.217102,96.684135 698.265686,105.665726 698.811951,114.490807 
	C700.845703,147.348587 694.685303,179.409012 687.733337,211.291336 
	C679.181396,250.511810 667.103271,288.742706 654.428162,326.778320 
	C652.953369,331.204010 653.878967,333.616638 656.997131,336.649750 
	C678.254333,357.327148 699.736877,377.797546 720.357117,399.099091 
	C748.183899,427.845123 773.637146,458.629639 794.234619,493.067719 
	C803.772034,509.013916 811.489563,525.926514 810.770508,545.168152 
	C810.634949,548.796875 808.835999,552.969788 806.490356,555.803833 
	C796.686401,567.648926 783.848999,575.267578 769.456238,580.287048 
	C747.376892,587.987244 724.571289,592.701782 701.373535,594.967712 
	C675.095764,597.534546 648.747437,599.624939 622.381165,600.963867 
	C601.610535,602.018555 580.765625,601.789307 559.954773,601.733398 
	C555.358582,601.721008 553.209106,603.240173 551.353699,607.289856 
	C529.764771,654.411011 506.709747,700.767456 477.922363,744.016479 
	C464.346100,764.412964 450.114380,784.414673 431.595245,800.682617 
	C424.567596,806.855957 416.157501,811.566833 408.021729,816.337524 
	C399.126556,821.553589 390.146851,818.554077 381.707062,814.738403 
	C370.705383,809.764465 361.986694,801.798340 355.052338,791.977356 
	C337.207062,766.703735 323.174316,739.338867 310.824158,711.047180 
	C294.615143,673.915649 282.304993,635.378540 269.578949,596.992065 
	C268.535126,593.843445 267.299805,592.233398 263.569946,591.707031 
	C237.433014,588.018433 211.310654,584.191040 185.256088,579.961792 
	C139.501144,572.534668 94.580238,561.925720 51.879387,543.337646 
	C38.388035,537.464783 26.366262,529.647705 18.247299,516.888428 
	C10.568172,504.820404 9.184261,492.350311 16.186708,479.563721 
	C25.173571,463.153625 36.142673,448.119019 48.440926,434.032532 
	C78.435944,399.676056 114.632759,372.462891 150.710770,345.103607 
	C162.901627,335.858826 175.066849,326.576141 187.046188,317.062012 
	C188.445847,315.950409 189.476089,313.094879 189.169662,311.306152 
	C184.710800,285.279297 179.655899,259.350952 175.467484,233.282700 
	C172.967438,217.722656 171.039261,202.001312 170.093018,186.277908 
	C168.794601,164.702881 167.841034,143.038681 168.321182,121.447868 
	C168.670380,105.745277 171.197159,90.043701 173.479370,74.447952 
	C175.033966,63.824501 180.711685,55.252266 190.110565,49.007778 
z"/>
</svg>