<?xml version="1.0" encoding="UTF-8"?>
<svg xmlns="http://www.w3.org/2000/svg" xmlns:xlink="http://www.w3.org/1999/xlink" width="40px" height="40px" viewBox="0 0 40 40" version="1.1">
<g id="surface1">
<path style=" stroke:none;fill-rule:nonzero;fill:rgb(100%,100%,100%);fill-opacity:1;" d="M 18.199219 40.035156 C 12.132812 40.035156 6.082031 40.035156 0.0351562 40.035156 C 0.0351562 26.699219 0.0351562 13.367188 0.0351562 0.0351562 C 13.367188 0.0351562 26.699219 0.0351562 40.035156 0.0351562 C 40.035156 13.367188 40.035156 26.699219 40.035156 40.035156 C 32.761719 40.035156 25.488281 40.035156 18.199219 40.035156 M 25.203125 27.15625 C 25.199219 27.167969 25.195312 27.179688 25.191406 27.1875 C 25.191406 27.1875 25.191406 27.1875 25.167969 27.1875 C 25.15625 27.203125 25.144531 27.214844 25.132812 27.230469 C 25.132812 27.230469 25.132812 27.230469 25.113281 27.234375 C 25.105469 27.246094 25.097656 27.253906 25.078125 27.269531 C 25.070312 27.273438 25.0625 27.28125 25.046875 27.300781 C 25.035156 27.320312 25.027344 27.339844 25.023438 27.355469 C 25.023438 27.355469 25.019531 27.351562 25 27.351562 C 24.988281 27.367188 24.972656 27.378906 24.964844 27.398438 C 24.964844 27.398438 24.960938 27.394531 24.941406 27.402344 C 24.914062 27.433594 24.886719 27.464844 24.863281 27.496094 C 24.863281 27.496094 24.859375 27.492188 24.839844 27.5 C 24.699219 27.640625 24.558594 27.78125 24.425781 27.929688 C 24.425781 27.929688 24.417969 27.917969 24.40625 27.921875 C 24.40625 27.921875 24.398438 27.929688 24.378906 27.941406 C 23.464844 28.820312 22.402344 29.402344 21.117188 29.582031 C 21.253906 29.632812 21.386719 29.6875 21.53125 29.753906 C 21.5625 29.769531 21.59375 29.78125 21.625 29.792969 C 22.773438 30.242188 23.949219 30.542969 25.199219 30.371094 C 26.34375 30.210938 27.269531 29.660156 28.046875 28.828125 C 28.351562 28.5 28.636719 28.148438 28.972656 27.859375 C 29.769531 27.171875 30.65625 27.015625 31.632812 27.503906 C 31.746094 27.558594 31.855469 27.613281 31.96875 27.683594 C 31.980469 27.6875 31.992188 27.695312 32.007812 27.699219 C 32.007812 27.699219 32.003906 27.707031 32.003906 27.707031 C 32.003906 27.707031 32 27.703125 31.992188 27.6875 C 31.984375 27.679688 31.976562 27.671875 31.960938 27.644531 C 31.878906 27.5625 31.804688 27.476562 31.722656 27.394531 C 31.519531 27.203125 31.316406 27.011719 31.113281 26.820312 C 31.113281 26.820312 31.113281 26.816406 31.109375 26.796875 C 31.050781 26.75 30.996094 26.703125 30.941406 26.660156 C 30.941406 26.660156 30.945312 26.65625 30.9375 26.636719 C 30.878906 26.589844 30.824219 26.539062 30.757812 26.472656 C 30.332031 26.148438 29.917969 25.800781 29.472656 25.503906 C 28.789062 25.050781 28.050781 24.710938 27.210938 24.5625 C 26.722656 24.476562 26.234375 24.457031 25.746094 24.53125 C 24.683594 24.691406 23.785156 25.183594 23 25.898438 C 23 25.898438 22.996094 25.894531 22.976562 25.902344 C 22.914062 25.964844 22.851562 26.027344 22.789062 26.089844 C 22.789062 26.089844 22.785156 26.085938 22.765625 26.09375 C 22.753906 26.113281 22.738281 26.132812 22.71875 26.152344 C 22.71875 26.152344 22.714844 26.15625 22.695312 26.160156 C 22.59375 26.269531 22.492188 26.375 22.386719 26.488281 C 22.386719 26.488281 22.382812 26.488281 22.363281 26.492188 C 22.070312 26.847656 21.78125 27.199219 21.488281 27.554688 C 21.488281 27.554688 21.484375 27.554688 21.464844 27.5625 C 21.417969 27.640625 21.371094 27.714844 21.320312 27.789062 C 21.320312 27.789062 21.316406 27.789062 21.296875 27.796875 C 21.140625 28.035156 20.980469 28.277344 20.820312 28.519531 C 20.820312 28.519531 20.824219 28.523438 20.804688 28.53125 C 20.757812 28.601562 20.714844 28.667969 20.65625 28.753906 C 21.257812 28.777344 21.820312 28.742188 22.390625 28.5625 C 23.171875 28.324219 23.816406 27.859375 24.433594 27.347656 C 24.953125 26.917969 25.460938 26.476562 26.070312 26.179688 C 26.460938 25.988281 26.871094 25.871094 27.308594 25.839844 C 26.511719 26.074219 25.847656 26.523438 25.253906 27.105469 C 25.253906 27.105469 25.253906 27.117188 25.253906 27.121094 C 25.253906 27.121094 25.257812 27.125 25.238281 27.125 C 25.234375 27.136719 25.226562 27.148438 25.230469 27.15625 C 25.230469 27.15625 25.222656 27.15625 25.203125 27.15625 M 14.386719 20.957031 C 14.390625 20.984375 14.398438 21.007812 14.398438 21.058594 C 14.609375 21.957031 14.949219 22.796875 15.464844 23.566406 C 15.511719 23.628906 15.574219 23.679688 15.628906 23.734375 C 15.628906 23.734375 15.628906 23.734375 15.621094 23.757812 C 15.769531 23.941406 15.914062 24.125 16.066406 24.328125 C 16.09375 24.355469 16.121094 24.378906 16.160156 24.425781 C 16.265625 24.53125 16.367188 24.644531 16.476562 24.742188 C 17.207031 25.417969 18.050781 25.910156 18.972656 26.265625 C 19.265625 26.378906 19.570312 26.464844 19.890625 26.570312 C 19.925781 26.582031 19.960938 26.589844 20.019531 26.613281 C 20.035156 26.609375 20.054688 26.605469 20.09375 26.601562 C 20.128906 26.589844 20.164062 26.574219 20.222656 26.566406 C 20.234375 26.5625 20.246094 26.566406 20.257812 26.5625 C 21.625 26.132812 22.871094 25.507812 23.878906 24.449219 C 24.671875 23.621094 25.207031 22.65625 25.535156 21.539062 C 25.558594 21.425781 25.582031 21.3125 25.601562 21.199219 C 25.601562 21.199219 25.601562 21.203125 25.625 21.195312 C 25.714844 20.675781 25.800781 20.15625 25.898438 19.609375 C 25.898438 19.574219 25.898438 19.535156 25.902344 19.472656 C 25.898438 19.394531 25.898438 19.316406 25.902344 19.210938 C 25.902344 19.171875 25.902344 19.136719 25.921875 19.089844 C 25.925781 19.046875 25.925781 19.007812 25.933594 18.941406 C 25.933594 18.917969 25.933594 18.890625 25.933594 18.832031 C 25.933594 18.566406 25.929688 18.300781 25.933594 18.011719 C 25.933594 17.996094 25.929688 17.980469 25.933594 17.933594 C 25.898438 17.589844 25.867188 17.242188 25.835938 16.875 C 25.832031 16.859375 25.832031 16.84375 25.832031 16.808594 C 25.820312 16.640625 25.808594 16.472656 25.796875 16.277344 C 25.722656 15.808594 25.652344 15.339844 25.566406 14.871094 C 25.515625 14.597656 25.433594 14.332031 25.367188 14.0625 C 25.367188 14.0625 25.367188 14.0625 25.375 14.035156 C 25.363281 13.980469 25.363281 13.925781 25.347656 13.871094 C 25.160156 13.171875 24.976562 12.46875 24.78125 11.769531 C 24.65625 11.339844 24.511719 10.917969 24.359375 10.433594 C 23.496094 11.257812 22.664062 12.050781 21.847656 12.832031 C 21.257812 11.859375 20.660156 10.875 20.066406 9.894531 C 20.042969 9.898438 20.019531 9.898438 19.996094 9.902344 C 19.398438 10.882812 18.804688 11.867188 18.21875 12.832031 C 17.398438 12.046875 16.566406 11.253906 15.738281 10.457031 C 15.714844 10.46875 15.695312 10.476562 15.671875 10.484375 C 15.417969 11.355469 15.148438 12.222656 14.910156 13.097656 C 14.625 14.152344 14.402344 15.21875 14.269531 16.332031 C 14.253906 16.457031 14.238281 16.582031 14.230469 16.707031 C 14.195312 17.101562 14.167969 17.5 14.132812 17.925781 C 14.132812 17.972656 14.136719 18.019531 14.132812 18.101562 C 14.144531 18.578125 14.15625 19.054688 14.167969 19.554688 C 14.167969 19.570312 14.171875 19.585938 14.171875 19.628906 C 14.183594 19.730469 14.1875 19.828125 14.203125 19.925781 C 14.253906 20.207031 14.3125 20.488281 14.363281 20.765625 C 14.363281 20.765625 14.363281 20.765625 14.347656 20.792969 C 14.367188 20.839844 14.382812 20.886719 14.398438 20.933594 C 14.398438 20.933594 14.394531 20.933594 14.386719 20.957031 M 18.035156 26.878906 C 18.023438 26.875 18.011719 26.867188 18.003906 26.863281 C 18.003906 26.863281 18.007812 26.863281 18.003906 26.839844 C 17.824219 26.644531 17.65625 26.441406 17.46875 26.253906 C 16.890625 25.683594 16.253906 25.191406 15.484375 24.863281 C 15.433594 24.84375 15.382812 24.824219 15.308594 24.792969 C 15.117188 24.742188 14.925781 24.6875 14.71875 24.632812 C 14.71875 24.632812 14.703125 24.632812 14.691406 24.609375 C 14.515625 24.585938 14.34375 24.5625 14.144531 24.53125 C 14.117188 24.53125 14.09375 24.53125 14.054688 24.507812 C 13.382812 24.441406 12.730469 24.535156 12.074219 24.765625 C 10.863281 25.203125 9.847656 25.945312 8.90625 26.839844 C 8.625 27.125 8.347656 27.414062 8.066406 27.703125 C 8.066406 27.703125 8.066406 27.699219 8.089844 27.699219 C 8.214844 27.628906 8.339844 27.554688 8.488281 27.472656 C 8.507812 27.460938 8.53125 27.445312 8.566406 27.4375 C 8.582031 27.429688 8.597656 27.421875 8.640625 27.402344 C 9.4375 27.085938 10.175781 27.191406 10.875 27.679688 C 11.285156 27.96875 11.601562 28.347656 11.925781 28.71875 C 12.527344 29.40625 13.246094 29.925781 14.125 30.203125 C 14.910156 30.449219 15.703125 30.472656 16.507812 30.34375 C 17.214844 30.230469 17.894531 30.03125 18.570312 29.722656 C 18.695312 29.675781 18.824219 29.628906 18.96875 29.574219 C 18.617188 29.492188 18.300781 29.429688 17.988281 29.339844 C 17.011719 29.0625 16.230469 28.472656 15.515625 27.777344 C 15.207031 27.476562 14.886719 27.1875 14.558594 26.875 C 14.050781 26.429688 13.496094 26.0625 12.816406 25.871094 C 12.8125 25.871094 12.804688 25.871094 12.78125 25.855469 C 12.832031 25.855469 12.886719 25.839844 12.929688 25.851562 C 13.320312 25.96875 13.707031 26.089844 14.097656 26.203125 C 14.097656 26.203125 14.09375 26.207031 14.105469 26.226562 C 14.289062 26.34375 14.484375 26.453125 14.660156 26.582031 C 14.992188 26.828125 15.308594 27.085938 15.632812 27.332031 C 15.632812 27.332031 15.628906 27.335938 15.640625 27.355469 C 15.945312 27.574219 16.246094 27.792969 16.550781 28.015625 C 16.550781 28.015625 16.554688 28.015625 16.5625 28.035156 C 17.417969 28.601562 18.367188 28.808594 19.429688 28.753906 C 19.128906 28.320312 18.847656 27.925781 18.566406 27.53125 C 18.566406 27.53125 18.570312 27.53125 18.5625 27.511719 C 18.386719 27.304688 18.210938 27.097656 18.035156 26.898438 C 18.035156 26.898438 18.039062 26.898438 18.035156 26.878906 Z M 18.035156 26.878906 "/>
<path style=" stroke:none;fill-rule:nonzero;fill:rgb(93.725491%,35.294119%,58.039218%);fill-opacity:1;" d="M 19.867188 26.5625 C 19.570312 26.464844 19.265625 26.378906 18.972656 26.265625 C 18.050781 25.910156 17.207031 25.417969 16.476562 24.742188 C 16.367188 24.644531 16.265625 24.53125 16.167969 24.414062 C 16.457031 24.320312 16.570312 24.023438 16.417969 23.726562 C 16.25 23.898438 16.300781 24.195312 16.0625 24.308594 C 15.914062 24.125 15.769531 23.941406 15.636719 23.75 C 15.683594 23.730469 15.722656 23.730469 15.742188 23.710938 C 15.851562 23.613281 15.964844 23.617188 16.113281 23.664062 C 16.011719 23.773438 15.921875 23.867188 15.828125 23.96875 C 15.871094 24.019531 15.902344 24.058594 15.945312 24.109375 C 16.082031 23.972656 16.195312 23.855469 16.3125 23.738281 C 16.390625 23.664062 16.371094 23.601562 16.296875 23.546875 C 16.132812 23.429688 15.957031 23.402344 15.765625 23.472656 C 15.640625 23.515625 15.5625 23.589844 15.628906 23.738281 C 15.574219 23.679688 15.511719 23.628906 15.464844 23.566406 C 14.949219 22.796875 14.609375 21.957031 14.410156 21.039062 C 14.410156 20.992188 14.402344 20.960938 14.394531 20.933594 C 14.394531 20.933594 14.398438 20.933594 14.398438 20.921875 C 14.386719 20.863281 14.375 20.8125 14.363281 20.765625 C 14.363281 20.765625 14.363281 20.765625 14.367188 20.753906 C 14.328125 20.457031 14.289062 20.179688 14.246094 19.898438 C 14.230469 19.796875 14.199219 19.699219 14.175781 19.601562 C 14.171875 19.585938 14.167969 19.570312 14.179688 19.53125 C 14.179688 19.042969 14.171875 18.578125 14.160156 18.109375 C 14.160156 18.097656 14.144531 18.082031 14.136719 18.070312 C 14.136719 18.019531 14.132812 17.972656 14.148438 17.910156 C 14.175781 17.847656 14.195312 17.800781 14.199219 17.757812 C 14.222656 17.472656 14.246094 17.1875 14.261719 16.902344 C 14.273438 16.703125 14.269531 16.503906 14.273438 16.304688 C 14.402344 15.21875 14.625 14.152344 14.910156 13.097656 C 15.148438 12.222656 15.417969 11.355469 15.671875 10.484375 C 15.695312 10.476562 15.714844 10.46875 15.738281 10.457031 C 16.566406 11.253906 17.398438 12.046875 18.21875 12.832031 C 18.804688 11.867188 19.398438 10.882812 19.996094 9.902344 C 20.019531 9.898438 20.042969 9.898438 20.066406 9.894531 C 20.660156 10.875 21.257812 11.859375 21.847656 12.832031 C 22.664062 12.050781 23.496094 11.257812 24.359375 10.433594 C 24.511719 10.917969 24.65625 11.339844 24.78125 11.769531 C 24.976562 12.46875 25.160156 13.171875 25.347656 13.871094 C 25.363281 13.925781 25.363281 13.980469 25.363281 14.042969 C 25.332031 14.015625 25.3125 13.980469 25.273438 13.910156 C 25.136719 14.070312 25.019531 14.210938 24.894531 14.359375 C 24.917969 14.382812 24.957031 14.425781 25.019531 14.488281 C 25.144531 14.335938 25.253906 14.199219 25.367188 14.058594 C 25.433594 14.332031 25.515625 14.597656 25.566406 14.871094 C 25.652344 15.339844 25.722656 15.808594 25.785156 16.300781 C 25.792969 16.492188 25.8125 16.660156 25.828125 16.832031 C 25.832031 16.84375 25.832031 16.859375 25.828125 16.894531 C 25.835938 17.214844 25.847656 17.515625 25.871094 17.816406 C 25.875 17.867188 25.910156 17.914062 25.929688 17.964844 C 25.929688 17.980469 25.933594 17.996094 25.921875 18.035156 C 25.917969 18.324219 25.925781 18.59375 25.929688 18.863281 C 25.933594 18.890625 25.933594 18.917969 25.921875 18.957031 C 25.90625 19.015625 25.90625 19.058594 25.902344 19.101562 C 25.902344 19.136719 25.902344 19.171875 25.890625 19.230469 C 25.882812 19.335938 25.890625 19.417969 25.898438 19.5 C 25.898438 19.535156 25.898438 19.574219 25.882812 19.625 C 25.839844 19.816406 25.8125 19.992188 25.78125 20.167969 C 25.722656 20.511719 25.664062 20.859375 25.601562 21.203125 C 25.601562 21.203125 25.601562 21.199219 25.59375 21.207031 C 25.566406 21.332031 25.546875 21.445312 25.527344 21.5625 C 25.207031 22.65625 24.671875 23.621094 23.878906 24.449219 C 22.871094 25.507812 21.625 26.132812 20.257812 26.5625 C 20.246094 26.566406 20.234375 26.5625 20.214844 26.554688 C 20.261719 26.5 20.308594 26.453125 20.363281 26.417969 C 21.167969 25.894531 21.90625 25.296875 22.503906 24.542969 C 23.058594 23.847656 23.480469 23.078125 23.734375 22.222656 C 23.882812 21.722656 23.96875 21.210938 24.007812 20.691406 C 24.058594 20.0625 24.046875 19.4375 23.949219 18.816406 C 23.859375 18.242188 23.722656 17.671875 23.613281 17.089844 C 23.636719 17.027344 23.65625 16.976562 23.671875 16.925781 C 23.753906 16.667969 23.625 16.410156 23.355469 16.300781 C 23.347656 16.300781 23.332031 16.300781 23.332031 16.285156 C 23.328125 16.246094 23.324219 16.21875 23.316406 16.191406 C 22.96875 15.171875 22.523438 14.195312 22.03125 13.238281 C 21.972656 13.125 21.90625 13.015625 21.820312 12.867188 C 21.210938 13.59375 20.617188 14.292969 20.019531 15.003906 C 19.457031 14.273438 18.878906 13.554688 18.222656 12.898438 C 18.132812 13.066406 18.042969 13.210938 17.96875 13.367188 C 17.660156 14.03125 17.34375 14.691406 17.058594 15.363281 C 16.890625 15.765625 16.773438 16.1875 16.632812 16.605469 C 16.628906 16.613281 16.628906 16.621094 16.621094 16.632812 C 16.589844 16.695312 16.5625 16.753906 16.546875 16.8125 C 16.308594 17.664062 16.121094 18.523438 16.058594 19.410156 C 16 20.242188 16.046875 21.066406 16.238281 21.878906 C 16.300781 22.152344 16.390625 22.417969 16.464844 22.699219 C 16.441406 22.734375 16.425781 22.753906 16.40625 22.773438 C 16.183594 23.023438 16.207031 23.386719 16.492188 23.5625 C 16.625 23.648438 16.804688 23.65625 16.972656 23.707031 C 17.585938 24.722656 18.402344 25.527344 19.363281 26.191406 C 19.535156 26.308594 19.699219 26.4375 19.867188 26.5625 M 25.5 15.320312 C 25.488281 15.253906 25.496094 15.171875 25.460938 15.128906 C 25.253906 14.882812 25.035156 14.648438 24.808594 14.390625 C 24.6875 14.519531 24.589844 14.644531 24.46875 14.742188 C 24.28125 14.894531 24.257812 15.089844 24.320312 15.296875 C 24.386719 15.507812 24.550781 15.628906 24.773438 15.664062 C 25.050781 15.707031 25.277344 15.488281 25.195312 15.226562 C 25.148438 15.273438 25.105469 15.3125 25.0625 15.355469 C 24.914062 15.496094 24.722656 15.503906 24.589844 15.371094 C 24.457031 15.242188 24.460938 15.023438 24.601562 14.882812 C 24.683594 14.800781 24.773438 14.722656 24.84375 14.652344 C 24.882812 14.71875 24.902344 14.777344 24.941406 14.824219 C 25.007812 14.898438 25.078125 14.96875 25.152344 15.035156 C 25.289062 15.167969 25.347656 15.316406 25.261719 15.496094 C 25.21875 15.59375 25.238281 15.65625 25.386719 15.710938 C 25.425781 15.585938 25.460938 15.46875 25.5 15.320312 M 23.597656 16.3125 C 23.691406 16.40625 23.789062 16.5 23.878906 16.597656 C 23.96875 16.691406 24.035156 16.683594 24.097656 16.558594 C 23.976562 16.429688 23.847656 16.308594 23.738281 16.171875 C 23.609375 16.003906 23.644531 15.804688 23.808594 15.675781 C 23.921875 15.589844 24.160156 15.632812 24.273438 15.761719 C 24.367188 15.867188 24.460938 15.972656 24.566406 16.089844 C 24.628906 16.015625 24.664062 15.976562 24.71875 15.917969 C 24.574219 15.78125 24.449219 15.636719 24.300781 15.527344 C 24.140625 15.410156 23.953125 15.386719 23.765625 15.484375 C 23.445312 15.648438 23.375 15.960938 23.597656 16.3125 Z M 23.597656 16.3125 "/>
<path style=" stroke:none;fill-rule:nonzero;fill:rgb(70.19608%,0.784314%,35.294119%);fill-opacity:1;" d="M 20.070312 26.601562 C 20.054688 26.605469 20.035156 26.609375 20.003906 26.597656 C 19.691406 26.230469 19.378906 25.894531 19.101562 25.527344 C 18.539062 24.792969 18.125 23.976562 17.859375 23.085938 C 17.703125 22.570312 17.621094 22.042969 17.605469 21.507812 C 17.59375 21.214844 17.597656 20.917969 17.636719 20.628906 C 17.699219 20.152344 17.777344 19.679688 17.882812 19.210938 C 17.960938 18.871094 18.09375 18.539062 18.210938 18.195312 C 18.222656 18.160156 18.230469 18.128906 18.242188 18.09375 C 18.335938 17.902344 18.40625 17.707031 18.507812 17.527344 C 18.851562 16.910156 19.207031 16.296875 19.566406 15.6875 C 19.699219 15.46875 19.867188 15.269531 20.03125 15.039062 C 20.082031 15.109375 20.121094 15.148438 20.148438 15.191406 C 20.484375 15.71875 20.832031 16.242188 21.15625 16.773438 C 21.625 17.539062 21.96875 18.363281 22.191406 19.230469 C 22.3125 19.699219 22.371094 20.183594 22.4375 20.664062 C 22.511719 21.234375 22.472656 21.800781 22.367188 22.375 C 22.367188 22.402344 22.367188 22.417969 22.363281 22.445312 C 22.242188 22.867188 22.136719 23.277344 22 23.675781 C 21.769531 24.328125 21.417969 24.917969 21.007812 25.46875 C 20.714844 25.859375 20.382812 26.222656 20.070312 26.601562 Z M 20.070312 26.601562 "/>
<path style=" stroke:none;fill-rule:nonzero;fill:rgb(88.627452%,0.784314%,44.705883%);fill-opacity:1;" d="M 20.082031 26.601562 C 20.382812 26.222656 20.714844 25.859375 21.007812 25.46875 C 21.417969 24.917969 21.769531 24.328125 22 23.675781 C 22.136719 23.277344 22.242188 22.867188 22.375 22.449219 C 22.414062 22.460938 22.4375 22.480469 22.46875 22.507812 C 22.480469 22.523438 22.488281 22.53125 22.503906 22.539062 C 22.511719 22.558594 22.523438 22.5625 22.535156 22.570312 C 22.539062 22.578125 22.542969 22.578125 22.546875 22.582031 C 22.542969 22.578125 22.539062 22.570312 22.53125 22.558594 C 22.519531 22.542969 22.511719 22.535156 22.496094 22.527344 C 22.488281 22.507812 22.476562 22.503906 22.464844 22.488281 C 22.433594 22.441406 22.398438 22.402344 22.367188 22.363281 C 22.472656 21.800781 22.511719 21.234375 22.4375 20.664062 C 22.371094 20.183594 22.3125 19.699219 22.191406 19.230469 C 21.96875 18.363281 21.625 17.539062 21.15625 16.773438 C 20.832031 16.242188 20.484375 15.71875 20.148438 15.191406 C 20.121094 15.148438 20.082031 15.109375 20.03125 15.039062 C 19.867188 15.269531 19.699219 15.46875 19.566406 15.6875 C 19.207031 16.296875 18.851562 16.910156 18.507812 17.527344 C 18.40625 17.707031 18.335938 17.902344 18.230469 18.09375 C 18.164062 18.0625 18.113281 18.027344 18.070312 17.988281 C 17.667969 17.585938 17.265625 17.183594 16.863281 16.78125 C 16.792969 16.714844 16.707031 16.660156 16.632812 16.601562 C 16.773438 16.1875 16.890625 15.765625 17.058594 15.363281 C 17.34375 14.691406 17.660156 14.03125 17.96875 13.367188 C 18.042969 13.210938 18.132812 13.066406 18.222656 12.898438 C 18.878906 13.554688 19.457031 14.273438 20.019531 15.003906 C 20.617188 14.292969 21.210938 13.59375 21.820312 12.867188 C 21.90625 13.015625 21.972656 13.125 22.03125 13.238281 C 22.523438 14.195312 22.96875 15.171875 23.316406 16.191406 C 23.324219 16.21875 23.328125 16.246094 23.320312 16.28125 C 23.25 16.277344 23.1875 16.25 23.125 16.253906 C 22.800781 16.277344 22.691406 16.570312 22.464844 16.753906 C 22.632812 16.785156 22.75 16.765625 22.835938 16.648438 C 22.984375 16.445312 23.179688 16.429688 23.40625 16.511719 C 23.441406 16.625 23.472656 16.726562 23.5 16.839844 C 23.394531 16.992188 23.285156 17.128906 23.15625 17.296875 C 23.03125 17.164062 22.917969 17.050781 22.8125 16.929688 C 22.707031 16.800781 22.578125 16.820312 22.515625 16.835938 C 22.75 17.113281 23.003906 17.40625 23.257812 17.699219 C 23.273438 17.691406 23.292969 17.679688 23.308594 17.667969 C 23.296875 17.554688 23.28125 17.4375 23.269531 17.363281 C 23.347656 17.3125 23.421875 17.269531 23.488281 17.21875 C 23.53125 17.1875 23.5625 17.140625 23.601562 17.097656 C 23.722656 17.671875 23.859375 18.242188 23.949219 18.816406 C 24.046875 19.4375 24.058594 20.0625 24.007812 20.691406 C 23.96875 21.210938 23.882812 21.722656 23.734375 22.222656 C 23.480469 23.078125 23.058594 23.847656 22.503906 24.542969 C 21.90625 25.296875 21.167969 25.894531 20.363281 26.417969 C 20.308594 26.453125 20.261719 26.5 20.203125 26.550781 C 20.164062 26.574219 20.128906 26.589844 20.082031 26.601562 M 22.910156 22.953125 C 22.929688 22.964844 22.949219 22.976562 22.972656 22.988281 C 22.976562 22.980469 22.980469 22.972656 22.984375 22.964844 C 22.957031 22.953125 22.925781 22.945312 22.898438 22.910156 C 22.875 22.898438 22.855469 22.882812 22.828125 22.855469 C 22.828125 22.855469 22.824219 22.851562 22.820312 22.851562 C 22.824219 22.855469 22.828125 22.863281 22.835938 22.886719 C 22.855469 22.902344 22.878906 22.917969 22.910156 22.953125 M 23.234375 23.25 C 23.238281 23.257812 23.242188 23.269531 23.246094 23.277344 C 23.25 23.273438 23.253906 23.269531 23.257812 23.269531 C 23.25 23.257812 23.242188 23.246094 23.222656 23.214844 C 23.203125 23.203125 23.179688 23.191406 23.15625 23.179688 C 23.152344 23.1875 23.148438 23.199219 23.144531 23.210938 C 23.175781 23.21875 23.203125 23.226562 23.234375 23.25 M 22.628906 22.65625 C 22.628906 22.65625 22.625 22.652344 22.621094 22.652344 C 22.625 22.65625 22.628906 22.660156 22.640625 22.683594 C 22.664062 22.707031 22.6875 22.726562 22.714844 22.746094 C 22.71875 22.734375 22.726562 22.726562 22.730469 22.714844 C 22.699219 22.699219 22.667969 22.683594 22.628906 22.65625 Z M 22.628906 22.65625 "/>
<path style=" stroke:none;fill-rule:nonzero;fill:rgb(59.607846%,79.215688%,27.058825%);fill-opacity:1;" d="M 21.523438 29.738281 C 21.386719 29.6875 21.253906 29.632812 21.117188 29.582031 C 22.402344 29.402344 23.464844 28.820312 24.394531 27.941406 C 24.410156 27.9375 24.414062 27.925781 24.417969 27.917969 C 24.417969 27.917969 24.425781 27.929688 24.4375 27.929688 C 24.582031 27.78125 24.722656 27.636719 24.859375 27.492188 C 24.859375 27.492188 24.863281 27.496094 24.875 27.496094 C 24.910156 27.460938 24.9375 27.429688 24.960938 27.394531 C 24.960938 27.394531 24.964844 27.398438 24.972656 27.398438 C 24.996094 27.382812 25.007812 27.367188 25.019531 27.351562 C 25.019531 27.351562 25.023438 27.355469 25.035156 27.355469 C 25.050781 27.332031 25.058594 27.3125 25.0625 27.289062 C 25.0625 27.28125 25.070312 27.273438 25.09375 27.261719 C 25.117188 27.25 25.125 27.238281 25.132812 27.230469 C 25.132812 27.230469 25.132812 27.230469 25.140625 27.230469 C 25.164062 27.214844 25.175781 27.203125 25.191406 27.1875 C 25.191406 27.1875 25.191406 27.1875 25.203125 27.191406 C 25.214844 27.179688 25.21875 27.167969 25.222656 27.15625 C 25.222656 27.15625 25.230469 27.15625 25.238281 27.15625 C 25.246094 27.144531 25.253906 27.132812 25.257812 27.125 C 25.257812 27.125 25.253906 27.121094 25.257812 27.125 C 25.269531 27.121094 25.277344 27.121094 25.28125 27.121094 C 25.273438 27.113281 25.269531 27.105469 25.261719 27.097656 C 25.847656 26.523438 26.511719 26.074219 27.308594 25.839844 C 26.871094 25.871094 26.460938 25.988281 26.070312 26.179688 C 25.460938 26.476562 24.953125 26.917969 24.433594 27.347656 C 23.816406 27.859375 23.171875 28.324219 22.371094 28.554688 C 22.296875 28.535156 22.238281 28.507812 22.1875 28.519531 C 22.101562 28.535156 22.019531 28.585938 21.933594 28.601562 C 21.804688 28.632812 21.671875 28.660156 21.539062 28.664062 C 21.308594 28.675781 21.078125 28.667969 20.839844 28.667969 C 20.835938 28.621094 20.828125 28.574219 20.824219 28.523438 C 20.824219 28.523438 20.820312 28.519531 20.832031 28.527344 C 20.957031 28.558594 21.015625 28.515625 21.015625 28.394531 C 21.015625 28.359375 21.027344 28.320312 21.046875 28.296875 C 21.109375 28.207031 21.183594 28.125 21.269531 28.019531 C 21.261719 28.019531 21.304688 28.023438 21.355469 28.027344 C 21.339844 27.9375 21.328125 27.863281 21.316406 27.789062 C 21.316406 27.789062 21.320312 27.789062 21.335938 27.789062 C 21.421875 27.765625 21.492188 27.742188 21.578125 27.710938 C 21.539062 27.644531 21.511719 27.601562 21.484375 27.554688 C 21.484375 27.554688 21.488281 27.554688 21.5 27.558594 C 21.632812 27.496094 21.757812 27.429688 21.878906 27.363281 C 21.796875 27.191406 21.878906 27.03125 22.066406 27.03125 C 22.046875 27.082031 22.03125 27.128906 22.011719 27.175781 C 22.027344 27.1875 22.042969 27.199219 22.058594 27.210938 C 22.082031 27.171875 22.125 27.136719 22.128906 27.097656 C 22.136719 26.949219 22.082031 26.765625 22.273438 26.710938 C 22.417969 26.667969 22.410156 26.59375 22.382812 26.488281 C 22.382812 26.488281 22.386719 26.488281 22.398438 26.492188 C 22.570312 26.429688 22.6875 26.332031 22.714844 26.15625 C 22.714844 26.15625 22.71875 26.152344 22.734375 26.15625 C 22.757812 26.136719 22.773438 26.113281 22.785156 26.085938 C 22.785156 26.085938 22.789062 26.089844 22.804688 26.09375 C 22.976562 26.121094 22.972656 25.996094 22.996094 25.894531 C 22.996094 25.894531 23 25.898438 23.011719 25.898438 C 23.097656 25.878906 23.183594 25.875 23.238281 25.832031 C 23.347656 25.746094 23.4375 25.632812 23.542969 25.539062 C 23.667969 25.433594 23.785156 25.3125 23.972656 25.335938 C 23.996094 25.339844 24.035156 25.316406 24.046875 25.296875 C 24.179688 25.074219 24.304688 25.019531 24.507812 25.0625 C 24.585938 24.988281 24.632812 24.914062 24.699219 24.886719 C 24.859375 24.824219 25.03125 24.78125 25.203125 24.742188 C 25.210938 24.761719 25.222656 24.773438 25.234375 24.785156 C 25.238281 24.777344 25.246094 24.769531 25.25 24.761719 C 25.234375 24.753906 25.21875 24.742188 25.207031 24.722656 C 25.378906 24.679688 25.542969 24.652344 25.707031 24.609375 C 26.066406 24.515625 26.429688 24.515625 26.800781 24.558594 C 26.941406 24.574219 27.089844 24.566406 27.230469 24.570312 C 28.050781 24.710938 28.789062 25.050781 29.472656 25.503906 C 29.917969 25.800781 30.332031 26.148438 30.765625 26.496094 C 30.828125 26.5625 30.886719 26.609375 30.945312 26.65625 C 30.945312 26.65625 30.941406 26.660156 30.941406 26.671875 C 30.972656 26.761719 30.992188 26.851562 31.113281 26.816406 C 31.113281 26.816406 31.113281 26.820312 31.109375 26.832031 C 31.148438 26.964844 31.058594 27.023438 30.988281 27.097656 C 30.570312 26.890625 30.144531 26.753906 29.691406 26.742188 C 29.03125 26.722656 28.476562 26.988281 28.007812 27.421875 C 27.523438 27.863281 27.070312 28.332031 26.601562 28.792969 C 26.101562 29.28125 25.550781 29.699219 24.882812 29.933594 C 24.050781 30.230469 23.207031 30.191406 22.363281 29.984375 C 22.082031 29.914062 21.804688 29.820312 21.523438 29.738281 Z M 21.523438 29.738281 "/>
<path style=" stroke:none;fill-rule:nonzero;fill:rgb(59.607846%,79.215688%,27.058825%);fill-opacity:1;" d="M 8.925781 26.828125 C 9.847656 25.945312 10.863281 25.203125 12.097656 24.777344 C 12.148438 24.789062 12.183594 24.800781 12.210938 24.789062 C 12.742188 24.605469 13.289062 24.527344 13.851562 24.535156 C 13.921875 24.535156 13.996094 24.53125 14.070312 24.527344 C 14.09375 24.53125 14.117188 24.53125 14.164062 24.542969 C 14.289062 24.582031 14.394531 24.609375 14.5 24.644531 C 14.410156 24.753906 14.328125 24.855469 14.234375 24.945312 C 14.140625 25.039062 14.15625 25.101562 14.273438 25.164062 C 14.414062 25.035156 14.554688 24.90625 14.691406 24.769531 C 14.71875 24.742188 14.71875 24.679688 14.734375 24.632812 C 14.925781 24.6875 15.117188 24.742188 15.3125 24.808594 C 15.265625 24.816406 15.214844 24.8125 15.128906 24.804688 C 15.257812 24.949219 15.367188 25.070312 15.472656 25.191406 C 15.488281 25.179688 15.5 25.167969 15.511719 25.15625 C 15.5625 25.117188 15.613281 25.074219 15.675781 25.035156 C 15.816406 25.128906 16.046875 25.097656 16.042969 25.308594 C 16.152344 25.339844 16.257812 25.351562 16.339844 25.398438 C 16.4375 25.457031 16.507812 25.570312 16.609375 25.621094 C 16.824219 25.734375 17.003906 25.871094 17.117188 26.085938 C 17.128906 26.113281 17.160156 26.152344 17.1875 26.152344 C 17.316406 26.152344 17.359375 26.265625 17.4375 26.335938 C 17.632812 26.507812 17.753906 26.757812 18.007812 26.863281 C 18.007812 26.863281 18.003906 26.863281 18.003906 26.871094 C 18.019531 26.886719 18.027344 26.890625 18.039062 26.898438 C 18.039062 26.898438 18.035156 26.898438 18.035156 26.90625 C 18.042969 26.976562 18.054688 27.03125 18.0625 27.085938 C 18.347656 27.136719 18.144531 27.355469 18.195312 27.503906 C 18.269531 27.378906 18.339844 27.359375 18.429688 27.46875 C 18.457031 27.503906 18.523438 27.511719 18.570312 27.53125 C 18.570312 27.53125 18.566406 27.53125 18.566406 27.546875 C 18.554688 27.625 18.542969 27.6875 18.53125 27.753906 C 18.585938 27.765625 18.636719 27.777344 18.691406 27.785156 C 18.699219 27.867188 18.703125 27.9375 18.710938 28.019531 C 18.761719 28.019531 18.808594 28.019531 18.824219 28.019531 C 18.882812 28.101562 18.914062 28.179688 18.972656 28.226562 C 19.101562 28.328125 18.96875 28.601562 19.242188 28.617188 C 18.96875 28.683594 18.710938 28.75 18.449219 28.648438 C 18.382812 28.625 18.3125 28.613281 18.246094 28.601562 C 18.066406 28.5625 17.882812 28.53125 17.703125 28.492188 C 17.675781 28.484375 17.644531 28.449219 17.640625 28.421875 C 17.613281 28.304688 17.550781 28.320312 17.46875 28.363281 C 17.4375 28.378906 17.386719 28.402344 17.367188 28.386719 C 17.222656 28.289062 17 28.277344 16.988281 28.066406 C 16.90625 28.066406 16.847656 28.074219 16.792969 28.066406 C 16.714844 28.054688 16.636719 28.035156 16.554688 28.015625 C 16.554688 28.015625 16.550781 28.015625 16.558594 28 C 16.570312 27.894531 16.589844 27.785156 16.460938 27.785156 C 16.273438 27.785156 16.179688 27.625 16.035156 27.566406 C 15.886719 27.507812 15.835938 27.285156 15.628906 27.335938 C 15.628906 27.335938 15.632812 27.332031 15.632812 27.324219 C 15.578125 27.222656 15.523438 27.132812 15.46875 27.042969 C 15.355469 27.078125 15.269531 27.019531 15.234375 26.90625 C 15.195312 26.78125 15.140625 26.714844 15.003906 26.726562 C 14.976562 26.730469 14.945312 26.703125 14.914062 26.6875 C 14.925781 26.640625 14.933594 26.597656 14.9375 26.554688 C 14.925781 26.566406 14.910156 26.578125 14.898438 26.589844 C 14.796875 26.527344 14.699219 26.464844 14.609375 26.402344 C 14.75 26.28125 14.824219 26.035156 14.738281 25.890625 C 14.628906 25.714844 14.484375 25.5625 14.351562 25.402344 C 14.265625 25.296875 14.195312 25.324219 14.117188 25.476562 C 14.21875 25.5625 14.332031 25.652344 14.433594 25.753906 C 14.605469 25.917969 14.617188 26.046875 14.492188 26.261719 C 14.476562 26.253906 14.46875 26.242188 14.46875 26.21875 C 14.480469 26.121094 14.488281 26.039062 14.503906 25.921875 C 14.355469 26.035156 14.242188 26.117188 14.121094 26.203125 C 14.105469 26.203125 14.101562 26.203125 14.09375 26.207031 C 14.09375 26.207031 14.097656 26.203125 14.09375 26.195312 C 14.035156 26.027344 13.859375 26.085938 13.773438 25.992188 C 13.667969 25.597656 14.046875 25.480469 14.21875 25.199219 C 14.140625 25.183594 14.054688 25.140625 14.035156 25.164062 C 13.816406 25.378906 13.515625 25.554688 13.554688 25.929688 C 13.308594 25.851562 13.074219 25.78125 12.839844 25.707031 C 12.675781 25.65625 12.597656 25.722656 12.628906 25.90625 C 12.6875 25.894531 12.742188 25.882812 12.796875 25.871094 C 12.804688 25.871094 12.8125 25.871094 12.828125 25.886719 C 12.921875 25.945312 13.003906 25.988281 13.082031 26.03125 C 13.136719 26.0625 13.183594 26.097656 13.222656 26.132812 C 12.78125 26.226562 12.609375 26.636719 12.808594 26.929688 C 12.929688 27.109375 13.125 27.234375 13.285156 27.382812 C 13.390625 27.285156 13.390625 27.28125 13.300781 27.183594 C 13.203125 27.078125 13.09375 26.984375 13.003906 26.871094 C 12.886719 26.71875 12.90625 26.546875 13.042969 26.429688 C 13.203125 26.292969 13.34375 26.292969 13.492188 26.445312 C 13.605469 26.5625 13.695312 26.691406 13.796875 26.816406 C 13.8125 26.800781 13.832031 26.785156 13.851562 26.765625 C 13.894531 26.738281 13.9375 26.707031 13.980469 26.675781 C 13.917969 26.582031 13.859375 26.492188 13.8125 26.402344 C 13.902344 26.46875 13.984375 26.535156 14.066406 26.597656 C 14.191406 26.695312 14.328125 26.777344 14.4375 26.890625 C 14.5 26.949219 14.523438 26.957031 14.570312 26.894531 C 14.886719 27.1875 15.207031 27.476562 15.515625 27.777344 C 16.230469 28.472656 17.011719 29.0625 17.988281 29.339844 C 18.300781 29.429688 18.617188 29.492188 18.96875 29.574219 C 18.824219 29.628906 18.695312 29.675781 18.546875 29.730469 C 18.015625 29.863281 17.511719 30.023438 16.996094 30.101562 C 16.109375 30.242188 15.265625 30.078125 14.488281 29.605469 C 13.792969 29.183594 13.25 28.585938 12.703125 27.996094 C 12.757812 27.933594 12.796875 27.875 12.839844 27.816406 C 13.023438 27.578125 13.003906 27.285156 12.800781 27.101562 C 12.570312 26.902344 12.253906 26.917969 12.039062 27.144531 C 11.996094 27.191406 11.941406 27.226562 11.882812 27.265625 C 11.839844 27.238281 11.808594 27.21875 11.777344 27.195312 C 11.28125 26.851562 10.742188 26.652344 10.136719 26.773438 C 9.773438 26.847656 9.421875 26.988281 9.0625 27.09375 C 8.960938 27.027344 8.941406 26.929688 8.925781 26.828125 M 15.054688 25.335938 C 14.921875 25.191406 14.792969 25.050781 14.664062 24.910156 C 14.640625 24.917969 14.617188 24.925781 14.59375 24.933594 C 14.582031 24.992188 14.539062 25.074219 14.5625 25.101562 C 14.722656 25.277344 14.894531 25.4375 15.0625 25.605469 C 15.199219 25.507812 15.183594 25.429688 15.054688 25.335938 M 16.324219 25.496094 C 16.320312 25.496094 16.3125 25.5 16.308594 25.5 C 16.3125 25.5 16.320312 25.503906 16.324219 25.496094 Z M 16.324219 25.496094 "/>
<path style=" stroke:none;fill-rule:nonzero;fill:rgb(88.627452%,0.784314%,44.705883%);fill-opacity:1;" d="M 18.203125 18.203125 C 18.09375 18.539062 17.960938 18.871094 17.882812 19.210938 C 17.777344 19.679688 17.699219 20.152344 17.636719 20.628906 C 17.597656 20.917969 17.59375 21.214844 17.605469 21.507812 C 17.621094 22.042969 17.703125 22.570312 17.859375 23.085938 C 18.125 23.976562 18.539062 24.792969 19.101562 25.527344 C 19.378906 25.894531 19.691406 26.230469 19.992188 26.589844 C 19.960938 26.589844 19.925781 26.582031 19.878906 26.566406 C 19.699219 26.4375 19.535156 26.308594 19.363281 26.191406 C 18.402344 25.527344 17.585938 24.722656 16.972656 23.695312 C 16.957031 23.664062 16.957031 23.648438 16.964844 23.632812 C 17.277344 23.480469 17.378906 23.238281 17.246094 22.894531 C 17.1875 22.980469 17.109375 23.046875 17.109375 23.113281 C 17.105469 23.296875 17.011719 23.398438 16.851562 23.464844 C 16.816406 23.394531 16.789062 23.332031 16.773438 23.261719 C 16.914062 23.128906 17.050781 23 17.175781 22.863281 C 17.191406 22.84375 17.160156 22.75 17.125 22.71875 C 16.941406 22.5625 16.714844 22.558594 16.492188 22.699219 C 16.484375 22.695312 16.46875 22.6875 16.46875 22.6875 C 16.390625 22.417969 16.300781 22.152344 16.238281 21.878906 C 16.046875 21.066406 16 20.242188 16.058594 19.410156 C 16.121094 18.523438 16.308594 17.664062 16.546875 16.8125 C 16.5625 16.753906 16.589844 16.695312 16.625 16.644531 C 17.160156 17.164062 17.683594 17.683594 18.203125 18.203125 Z M 18.203125 18.203125 "/>
<path style=" stroke:none;fill-rule:nonzero;fill:rgb(1.568628%,65.882355%,36.470589%);fill-opacity:1;" d="M 21.527344 29.746094 C 21.804688 29.820312 22.082031 29.914062 22.363281 29.984375 C 23.207031 30.191406 24.050781 30.230469 24.882812 29.933594 C 25.550781 29.699219 26.101562 29.28125 26.601562 28.792969 C 27.070312 28.332031 27.523438 27.863281 28.007812 27.421875 C 28.476562 26.988281 29.03125 26.722656 29.691406 26.742188 C 30.144531 26.753906 30.570312 26.890625 31 27.101562 C 31.066406 27.121094 31.113281 27.128906 31.160156 27.136719 C 31.160156 27.136719 31.160156 27.140625 31.160156 27.152344 C 31.226562 27.210938 31.296875 27.253906 31.363281 27.300781 C 31.453125 27.363281 31.535156 27.429688 31.621094 27.496094 C 30.65625 27.015625 29.769531 27.171875 28.972656 27.859375 C 28.636719 28.148438 28.351562 28.5 28.046875 28.828125 C 27.269531 29.660156 26.34375 30.210938 25.199219 30.371094 C 23.949219 30.542969 22.773438 30.242188 21.625 29.792969 C 21.59375 29.78125 21.5625 29.769531 21.527344 29.746094 Z M 21.527344 29.746094 "/>
<path style=" stroke:none;fill-rule:nonzero;fill:rgb(1.568628%,65.882355%,36.470589%);fill-opacity:1;" d="M 9.066406 27.101562 C 9.421875 26.988281 9.773438 26.847656 10.136719 26.773438 C 10.742188 26.652344 11.28125 26.851562 11.777344 27.195312 C 11.808594 27.21875 11.839844 27.238281 11.886719 27.273438 C 11.898438 27.285156 11.902344 27.296875 11.894531 27.304688 C 11.835938 27.363281 11.785156 27.414062 11.734375 27.460938 C 11.742188 27.480469 11.753906 27.5 11.765625 27.519531 C 11.867188 27.488281 11.964844 27.460938 12.078125 27.4375 C 12.238281 27.59375 12.386719 27.746094 12.539062 27.910156 C 12.589844 27.949219 12.640625 27.976562 12.695312 28.003906 C 13.25 28.585938 13.792969 29.183594 14.488281 29.605469 C 15.265625 30.078125 16.109375 30.242188 16.996094 30.101562 C 17.511719 30.023438 18.015625 29.863281 18.535156 29.738281 C 17.894531 30.03125 17.214844 30.230469 16.507812 30.34375 C 15.703125 30.472656 14.910156 30.449219 14.125 30.203125 C 13.246094 29.925781 12.527344 29.40625 11.925781 28.71875 C 11.601562 28.347656 11.285156 27.96875 10.875 27.679688 C 10.175781 27.191406 9.4375 27.085938 8.628906 27.394531 C 8.699219 27.324219 8.785156 27.261719 8.875 27.199219 C 8.890625 27.195312 8.898438 27.1875 8.914062 27.175781 C 8.972656 27.148438 9.019531 27.125 9.066406 27.101562 M 12.40625 27.976562 C 12.300781 27.871094 12.199219 27.765625 12.09375 27.664062 C 11.996094 27.574219 11.898438 27.480469 11.710938 27.578125 C 11.992188 27.855469 12.261719 28.125 12.542969 28.402344 C 12.609375 28.210938 12.535156 28.097656 12.40625 27.976562 Z M 12.40625 27.976562 "/>
<path style=" stroke:none;fill-rule:nonzero;fill:rgb(56.862748%,76.862746%,20.784314%);fill-opacity:1;" d="M 16.558594 28.027344 C 16.636719 28.035156 16.714844 28.054688 16.792969 28.066406 C 16.847656 28.074219 16.90625 28.066406 16.988281 28.066406 C 17 28.277344 17.222656 28.289062 17.367188 28.386719 C 17.386719 28.402344 17.4375 28.378906 17.46875 28.363281 C 17.550781 28.320312 17.613281 28.304688 17.640625 28.421875 C 17.644531 28.449219 17.675781 28.484375 17.703125 28.492188 C 17.882812 28.53125 18.066406 28.5625 18.246094 28.601562 C 18.3125 28.613281 18.382812 28.625 18.449219 28.648438 C 18.710938 28.75 18.96875 28.683594 19.242188 28.617188 C 18.96875 28.601562 19.101562 28.328125 18.972656 28.226562 C 18.914062 28.179688 18.882812 28.101562 18.824219 28.019531 C 18.808594 28.019531 18.761719 28.019531 18.710938 28.019531 C 18.703125 27.9375 18.699219 27.867188 18.691406 27.785156 C 18.636719 27.777344 18.585938 27.765625 18.53125 27.753906 C 18.542969 27.6875 18.554688 27.625 18.566406 27.542969 C 18.847656 27.925781 19.128906 28.320312 19.429688 28.753906 C 18.367188 28.808594 17.417969 28.601562 16.558594 28.027344 M 16.8125 28.117188 C 16.8125 28.117188 16.816406 28.113281 16.8125 28.117188 Z M 16.8125 28.117188 "/>
<path style=" stroke:none;fill-rule:nonzero;fill:rgb(56.862748%,76.862746%,20.784314%);fill-opacity:1;" d="M 25.199219 24.734375 C 25.03125 24.78125 24.859375 24.824219 24.699219 24.886719 C 24.632812 24.914062 24.585938 24.988281 24.507812 25.0625 C 24.304688 25.019531 24.179688 25.074219 24.046875 25.296875 C 24.035156 25.316406 23.996094 25.339844 23.972656 25.335938 C 23.785156 25.3125 23.667969 25.433594 23.542969 25.539062 C 23.4375 25.632812 23.347656 25.746094 23.238281 25.832031 C 23.183594 25.875 23.097656 25.878906 23.007812 25.898438 C 23.785156 25.183594 24.683594 24.691406 25.746094 24.53125 C 26.234375 24.457031 26.722656 24.476562 27.222656 24.566406 C 27.089844 24.566406 26.941406 24.574219 26.800781 24.558594 C 26.429688 24.515625 26.066406 24.515625 25.707031 24.609375 C 25.542969 24.652344 25.378906 24.679688 25.207031 24.722656 C 25.199219 24.734375 25.199219 24.734375 25.199219 24.734375 Z M 25.199219 24.734375 "/>
<path style=" stroke:none;fill-rule:nonzero;fill:rgb(56.862748%,76.862746%,20.784314%);fill-opacity:1;" d="M 18.003906 26.851562 C 17.753906 26.757812 17.632812 26.507812 17.4375 26.335938 C 17.359375 26.265625 17.316406 26.152344 17.1875 26.152344 C 17.160156 26.152344 17.128906 26.113281 17.117188 26.085938 C 17.003906 25.871094 16.824219 25.734375 16.609375 25.621094 C 16.507812 25.570312 16.4375 25.457031 16.339844 25.398438 C 16.257812 25.351562 16.152344 25.339844 16.042969 25.308594 C 16.046875 25.097656 15.816406 25.128906 15.671875 25.027344 C 15.601562 24.96875 15.550781 24.921875 15.5 24.875 C 16.253906 25.191406 16.890625 25.683594 17.46875 26.253906 C 17.65625 26.441406 17.824219 26.644531 18.003906 26.851562 Z M 18.003906 26.851562 "/>
<path style=" stroke:none;fill-rule:nonzero;fill:rgb(56.862748%,76.862746%,20.784314%);fill-opacity:1;" d="M 14.597656 26.402344 C 14.699219 26.464844 14.796875 26.527344 14.898438 26.589844 C 14.910156 26.578125 14.925781 26.566406 14.9375 26.554688 C 14.933594 26.597656 14.925781 26.640625 14.914062 26.6875 C 14.945312 26.703125 14.976562 26.730469 15.003906 26.726562 C 15.140625 26.714844 15.195312 26.78125 15.234375 26.90625 C 15.269531 27.019531 15.355469 27.078125 15.46875 27.042969 C 15.523438 27.132812 15.578125 27.222656 15.632812 27.324219 C 15.308594 27.085938 14.992188 26.828125 14.660156 26.582031 C 14.484375 26.453125 14.289062 26.34375 14.097656 26.214844 C 14.101562 26.203125 14.105469 26.203125 14.132812 26.203125 C 14.257812 26.21875 14.351562 26.355469 14.464844 26.234375 C 14.46875 26.242188 14.476562 26.253906 14.492188 26.273438 C 14.53125 26.328125 14.566406 26.363281 14.597656 26.402344 Z M 14.597656 26.402344 "/>
<path style=" stroke:none;fill-rule:nonzero;fill:rgb(56.862748%,76.862746%,20.784314%);fill-opacity:1;" d="M 9.0625 27.09375 C 9.019531 27.125 8.972656 27.148438 8.914062 27.164062 C 8.882812 27.113281 8.859375 27.078125 8.839844 27.039062 C 8.824219 27.046875 8.808594 27.058594 8.796875 27.066406 C 8.820312 27.113281 8.84375 27.15625 8.867188 27.199219 C 8.785156 27.261719 8.699219 27.324219 8.617188 27.398438 C 8.597656 27.421875 8.582031 27.429688 8.550781 27.425781 C 8.515625 27.4375 8.488281 27.460938 8.464844 27.484375 C 8.339844 27.554688 8.214844 27.628906 8.078125 27.699219 C 8.066406 27.699219 8.066406 27.699219 8.066406 27.699219 C 8.347656 27.414062 8.625 27.125 8.917969 26.835938 C 8.941406 26.929688 8.960938 27.027344 9.0625 27.09375 M 8.609375 27.238281 C 8.613281 27.238281 8.621094 27.234375 8.625 27.234375 C 8.621094 27.230469 8.613281 27.230469 8.609375 27.238281 Z M 8.609375 27.238281 "/>
<path style=" stroke:none;fill-rule:nonzero;fill:rgb(56.862748%,76.862746%,20.784314%);fill-opacity:1;" d="M 31.625 27.5 C 31.535156 27.429688 31.453125 27.363281 31.363281 27.300781 C 31.296875 27.253906 31.226562 27.210938 31.171875 27.152344 C 31.210938 27.113281 31.238281 27.09375 31.265625 27.074219 C 31.25 27.058594 31.238281 27.046875 31.222656 27.035156 C 31.203125 27.070312 31.179688 27.101562 31.15625 27.136719 C 31.113281 27.128906 31.066406 27.121094 31.011719 27.105469 C 31.058594 27.023438 31.148438 26.964844 31.109375 26.835938 C 31.316406 27.011719 31.519531 27.203125 31.722656 27.394531 C 31.804688 27.476562 31.878906 27.5625 31.964844 27.65625 C 31.96875 27.667969 31.96875 27.664062 31.96875 27.664062 C 31.855469 27.613281 31.746094 27.558594 31.625 27.5 M 31.421875 27.234375 C 31.425781 27.242188 31.429688 27.25 31.429688 27.257812 C 31.441406 27.246094 31.449219 27.238281 31.457031 27.230469 C 31.449219 27.226562 31.441406 27.226562 31.421875 27.234375 M 31.316406 27.148438 C 31.316406 27.148438 31.320312 27.152344 31.316406 27.148438 Z M 31.316406 27.148438 "/>
<path style=" stroke:none;fill-rule:nonzero;fill:rgb(56.862748%,76.862746%,20.784314%);fill-opacity:1;" d="M 22.375 26.492188 C 22.410156 26.59375 22.417969 26.667969 22.273438 26.710938 C 22.082031 26.765625 22.136719 26.949219 22.128906 27.097656 C 22.125 27.136719 22.082031 27.171875 22.058594 27.210938 C 22.042969 27.199219 22.027344 27.1875 22.011719 27.175781 C 22.03125 27.128906 22.046875 27.082031 22.066406 27.03125 C 21.878906 27.03125 21.796875 27.191406 21.878906 27.363281 C 21.757812 27.429688 21.632812 27.496094 21.5 27.558594 C 21.78125 27.199219 22.070312 26.847656 22.375 26.492188 Z M 22.375 26.492188 "/>
<path style=" stroke:none;fill-rule:nonzero;fill:rgb(56.862748%,76.862746%,20.784314%);fill-opacity:1;" d="M 14.566406 26.882812 C 14.523438 26.957031 14.5 26.949219 14.4375 26.890625 C 14.328125 26.777344 14.191406 26.695312 14.066406 26.597656 C 13.984375 26.535156 13.902344 26.46875 13.8125 26.402344 C 13.800781 26.402344 13.800781 26.402344 13.792969 26.390625 C 13.757812 26.378906 13.730469 26.371094 13.695312 26.355469 C 13.539062 26.273438 13.386719 26.203125 13.234375 26.132812 C 13.183594 26.097656 13.136719 26.0625 13.082031 26.03125 C 13.003906 25.988281 12.921875 25.945312 12.835938 25.890625 C 13.496094 26.0625 14.050781 26.429688 14.566406 26.882812 Z M 14.566406 26.882812 "/>
<path style=" stroke:none;fill-rule:nonzero;fill:rgb(56.862748%,76.862746%,20.784314%);fill-opacity:1;" d="M 20.8125 28.527344 C 20.828125 28.574219 20.835938 28.621094 20.839844 28.667969 C 21.078125 28.667969 21.308594 28.675781 21.539062 28.664062 C 21.671875 28.660156 21.804688 28.632812 21.933594 28.601562 C 22.019531 28.585938 22.101562 28.535156 22.1875 28.519531 C 22.238281 28.507812 22.296875 28.535156 22.359375 28.554688 C 21.820312 28.742188 21.257812 28.777344 20.65625 28.753906 C 20.714844 28.667969 20.757812 28.601562 20.8125 28.527344 Z M 20.8125 28.527344 "/>
<path style=" stroke:none;fill-rule:nonzero;fill:rgb(56.862748%,76.862746%,20.784314%);fill-opacity:1;" d="M 12.789062 25.863281 C 12.742188 25.882812 12.6875 25.894531 12.628906 25.90625 C 12.597656 25.722656 12.675781 25.65625 12.839844 25.707031 C 13.074219 25.78125 13.308594 25.851562 13.566406 25.929688 C 13.648438 25.960938 13.707031 25.980469 13.765625 26.003906 C 13.859375 26.085938 14.035156 26.027344 14.09375 26.195312 C 13.707031 26.089844 13.320312 25.96875 12.929688 25.851562 C 12.886719 25.839844 12.832031 25.855469 12.789062 25.863281 Z M 12.789062 25.863281 "/>
<path style=" stroke:none;fill-rule:nonzero;fill:rgb(94.901961%,45.09804%,64.313728%);fill-opacity:1;" d="M 16.066406 24.320312 C 16.300781 24.195312 16.25 23.898438 16.417969 23.726562 C 16.570312 24.023438 16.457031 24.320312 16.164062 24.402344 C 16.121094 24.378906 16.09375 24.355469 16.066406 24.320312 Z M 16.066406 24.320312 "/>
<path style=" stroke:none;fill-rule:nonzero;fill:rgb(65.490198%,82.352942%,38.431373%);fill-opacity:1;" d="M 14.726562 24.632812 C 14.71875 24.679688 14.71875 24.742188 14.691406 24.769531 C 14.554688 24.90625 14.414062 25.035156 14.273438 25.164062 C 14.15625 25.101562 14.140625 25.039062 14.234375 24.945312 C 14.328125 24.855469 14.410156 24.753906 14.515625 24.644531 C 14.589844 24.632812 14.644531 24.632812 14.703125 24.632812 C 14.703125 24.632812 14.71875 24.632812 14.726562 24.632812 Z M 14.726562 24.632812 "/>
<path style=" stroke:none;fill-rule:nonzero;fill:rgb(56.862748%,76.862746%,20.784314%);fill-opacity:1;" d="M 15.636719 27.34375 C 15.835938 27.285156 15.886719 27.507812 16.035156 27.566406 C 16.179688 27.625 16.273438 27.785156 16.460938 27.785156 C 16.589844 27.785156 16.570312 27.894531 16.554688 28 C 16.246094 27.792969 15.945312 27.574219 15.636719 27.34375 Z M 15.636719 27.34375 "/>
<path style=" stroke:none;fill-rule:nonzero;fill:rgb(56.862748%,76.862746%,20.784314%);fill-opacity:1;" d="M 14.0625 24.515625 C 13.996094 24.53125 13.921875 24.535156 13.851562 24.535156 C 13.289062 24.527344 12.742188 24.605469 12.210938 24.789062 C 12.183594 24.800781 12.148438 24.789062 12.109375 24.777344 C 12.730469 24.535156 13.382812 24.441406 14.0625 24.515625 Z M 14.0625 24.515625 "/>
<path style=" stroke:none;fill-rule:nonzero;fill:rgb(56.862748%,76.862746%,20.784314%);fill-opacity:1;" d="M 18.566406 27.519531 C 18.523438 27.511719 18.457031 27.503906 18.429688 27.46875 C 18.339844 27.359375 18.269531 27.378906 18.195312 27.503906 C 18.144531 27.355469 18.347656 27.136719 18.0625 27.085938 C 18.054688 27.03125 18.042969 26.976562 18.039062 26.90625 C 18.210938 27.097656 18.386719 27.304688 18.566406 27.519531 Z M 18.566406 27.519531 "/>
<path style=" stroke:none;fill-rule:nonzero;fill:rgb(56.862748%,76.862746%,20.784314%);fill-opacity:1;" d="M 21.308594 27.792969 C 21.328125 27.863281 21.339844 27.9375 21.355469 28.027344 C 21.304688 28.023438 21.261719 28.019531 21.269531 28.019531 C 21.183594 28.125 21.109375 28.207031 21.046875 28.296875 C 21.027344 28.320312 21.015625 28.359375 21.015625 28.394531 C 21.015625 28.515625 20.957031 28.558594 20.832031 28.523438 C 20.980469 28.277344 21.140625 28.035156 21.308594 27.792969 Z M 21.308594 27.792969 "/>
<path style=" stroke:none;fill-rule:nonzero;fill:rgb(90.196079%,16.078432%,52.941179%);fill-opacity:1;" d="M 14.269531 16.316406 C 14.269531 16.503906 14.273438 16.703125 14.261719 16.902344 C 14.246094 17.1875 14.222656 17.472656 14.199219 17.757812 C 14.195312 17.800781 14.175781 17.847656 14.152344 17.894531 C 14.167969 17.5 14.195312 17.101562 14.230469 16.707031 C 14.238281 16.582031 14.253906 16.457031 14.269531 16.316406 Z M 14.269531 16.316406 "/>
<path style=" stroke:none;fill-rule:nonzero;fill:rgb(90.196079%,16.078432%,52.941179%);fill-opacity:1;" d="M 25.613281 21.199219 C 25.664062 20.859375 25.722656 20.511719 25.78125 20.167969 C 25.8125 19.992188 25.839844 19.816406 25.878906 19.640625 C 25.800781 20.15625 25.714844 20.675781 25.613281 21.199219 Z M 25.613281 21.199219 "/>
<path style=" stroke:none;fill-rule:nonzero;fill:rgb(65.490198%,82.352942%,38.431373%);fill-opacity:1;" d="M 15.492188 24.867188 C 15.550781 24.921875 15.601562 24.96875 15.65625 25.023438 C 15.613281 25.074219 15.5625 25.117188 15.511719 25.15625 C 15.5 25.167969 15.488281 25.179688 15.472656 25.191406 C 15.367188 25.070312 15.257812 24.949219 15.128906 24.804688 C 15.214844 24.8125 15.265625 24.816406 15.324219 24.8125 C 15.382812 24.824219 15.433594 24.84375 15.492188 24.867188 Z M 15.492188 24.867188 "/>
<path style=" stroke:none;fill-rule:nonzero;fill:rgb(90.196079%,16.078432%,52.941179%);fill-opacity:1;" d="M 25.929688 17.949219 C 25.910156 17.914062 25.875 17.867188 25.871094 17.816406 C 25.847656 17.515625 25.835938 17.214844 25.828125 16.90625 C 25.867188 17.242188 25.898438 17.589844 25.929688 17.949219 Z M 25.929688 17.949219 "/>
<path style=" stroke:none;fill-rule:nonzero;fill:rgb(90.196079%,16.078432%,52.941179%);fill-opacity:1;" d="M 14.171875 19.617188 C 14.199219 19.699219 14.230469 19.796875 14.246094 19.898438 C 14.289062 20.179688 14.328125 20.457031 14.367188 20.753906 C 14.3125 20.488281 14.253906 20.207031 14.203125 19.925781 C 14.1875 19.828125 14.183594 19.730469 14.171875 19.617188 Z M 14.171875 19.617188 "/>
<path style=" stroke:none;fill-rule:nonzero;fill:rgb(90.196079%,16.078432%,52.941179%);fill-opacity:1;" d="M 14.136719 18.085938 C 14.144531 18.082031 14.160156 18.097656 14.160156 18.109375 C 14.171875 18.578125 14.179688 19.042969 14.179688 19.519531 C 14.15625 19.054688 14.144531 18.578125 14.136719 18.085938 Z M 14.136719 18.085938 "/>
<path style=" stroke:none;fill-rule:nonzero;fill:rgb(56.862748%,76.862746%,20.784314%);fill-opacity:1;" d="M 24.851562 27.496094 C 24.722656 27.636719 24.582031 27.78125 24.433594 27.921875 C 24.558594 27.78125 24.699219 27.640625 24.851562 27.496094 Z M 24.851562 27.496094 "/>
<path style=" stroke:none;fill-rule:nonzero;fill:rgb(56.862748%,76.862746%,20.784314%);fill-opacity:1;" d="M 22.707031 26.15625 C 22.6875 26.332031 22.570312 26.429688 22.398438 26.488281 C 22.492188 26.375 22.59375 26.269531 22.707031 26.15625 Z M 22.707031 26.15625 "/>
<path style=" stroke:none;fill-rule:nonzero;fill:rgb(56.862748%,76.862746%,20.784314%);fill-opacity:1;" d="M 21.476562 27.558594 C 21.511719 27.601562 21.539062 27.644531 21.578125 27.710938 C 21.492188 27.742188 21.421875 27.765625 21.335938 27.789062 C 21.371094 27.714844 21.417969 27.640625 21.476562 27.558594 Z M 21.476562 27.558594 "/>
<path style=" stroke:none;fill-rule:nonzero;fill:rgb(56.862748%,76.862746%,20.784314%);fill-opacity:1;" d="M 14.699219 24.621094 C 14.644531 24.632812 14.589844 24.632812 14.515625 24.632812 C 14.394531 24.609375 14.289062 24.582031 14.175781 24.546875 C 14.34375 24.5625 14.515625 24.585938 14.699219 24.621094 Z M 14.699219 24.621094 "/>
<path style=" stroke:none;fill-rule:nonzero;fill:rgb(90.196079%,16.078432%,52.941179%);fill-opacity:1;" d="M 25.832031 16.820312 C 25.8125 16.660156 25.792969 16.492188 25.785156 16.3125 C 25.808594 16.472656 25.820312 16.640625 25.832031 16.820312 Z M 25.832031 16.820312 "/>
<path style=" stroke:none;fill-rule:nonzero;fill:rgb(90.196079%,16.078432%,52.941179%);fill-opacity:1;" d="M 25.933594 18.847656 C 25.925781 18.59375 25.917969 18.324219 25.921875 18.046875 C 25.929688 18.300781 25.933594 18.566406 25.933594 18.847656 Z M 25.933594 18.847656 "/>
<path style=" stroke:none;fill-rule:nonzero;fill:rgb(56.862748%,76.862746%,20.784314%);fill-opacity:1;" d="M 22.988281 25.898438 C 22.972656 25.996094 22.976562 26.121094 22.804688 26.089844 C 22.851562 26.027344 22.914062 25.964844 22.988281 25.898438 Z M 22.988281 25.898438 "/>
<path style=" stroke:none;fill-rule:nonzero;fill:rgb(90.196079%,16.078432%,52.941179%);fill-opacity:1;" d="M 25.53125 21.550781 C 25.546875 21.445312 25.566406 21.332031 25.59375 21.207031 C 25.582031 21.3125 25.558594 21.425781 25.53125 21.550781 Z M 25.53125 21.550781 "/>
<path style=" stroke:none;fill-rule:nonzero;fill:rgb(56.862748%,76.862746%,20.784314%);fill-opacity:1;" d="M 31.109375 26.804688 C 30.992188 26.851562 30.972656 26.761719 30.941406 26.667969 C 30.996094 26.703125 31.050781 26.75 31.109375 26.804688 Z M 31.109375 26.804688 "/>
<path style=" stroke:none;fill-rule:nonzero;fill:rgb(56.862748%,76.862746%,20.784314%);fill-opacity:1;" d="M 30.941406 26.644531 C 30.886719 26.609375 30.828125 26.5625 30.769531 26.503906 C 30.824219 26.539062 30.878906 26.589844 30.941406 26.644531 Z M 30.941406 26.644531 "/>
<path style=" stroke:none;fill-rule:nonzero;fill:rgb(90.196079%,16.078432%,52.941179%);fill-opacity:1;" d="M 25.898438 19.484375 C 25.890625 19.417969 25.882812 19.335938 25.886719 19.246094 C 25.898438 19.316406 25.898438 19.394531 25.898438 19.484375 Z M 25.898438 19.484375 "/>
<path style=" stroke:none;fill-rule:nonzero;fill:rgb(90.196079%,16.078432%,52.941179%);fill-opacity:1;" d="M 25.914062 19.09375 C 25.90625 19.058594 25.90625 19.015625 25.917969 18.96875 C 25.925781 19.007812 25.925781 19.046875 25.914062 19.09375 Z M 25.914062 19.09375 "/>
<path style=" stroke:none;fill-rule:nonzero;fill:rgb(56.862748%,76.862746%,20.784314%);fill-opacity:1;" d="M 24.953125 27.398438 C 24.9375 27.429688 24.910156 27.460938 24.871094 27.496094 C 24.886719 27.464844 24.914062 27.433594 24.953125 27.398438 Z M 24.953125 27.398438 "/>
<path style=" stroke:none;fill-rule:nonzero;fill:rgb(90.196079%,16.078432%,52.941179%);fill-opacity:1;" d="M 14.355469 20.777344 C 14.375 20.8125 14.386719 20.863281 14.398438 20.921875 C 14.382812 20.886719 14.367188 20.839844 14.355469 20.777344 Z M 14.355469 20.777344 "/>
<path style=" stroke:none;fill-rule:nonzero;fill:rgb(56.862748%,76.862746%,20.784314%);fill-opacity:1;" d="M 22.777344 26.089844 C 22.773438 26.113281 22.757812 26.136719 22.734375 26.15625 C 22.738281 26.132812 22.753906 26.113281 22.777344 26.089844 Z M 22.777344 26.089844 "/>
<path style=" stroke:none;fill-rule:nonzero;fill:rgb(90.196079%,16.078432%,52.941179%);fill-opacity:1;" d="M 14.390625 20.945312 C 14.402344 20.960938 14.410156 20.992188 14.410156 21.027344 C 14.398438 21.007812 14.390625 20.984375 14.390625 20.945312 Z M 14.390625 20.945312 "/>
<path style=" stroke:none;fill-rule:nonzero;fill:rgb(1.568628%,65.882355%,36.470589%);fill-opacity:1;" d="M 8.476562 27.476562 C 8.488281 27.460938 8.515625 27.4375 8.542969 27.425781 C 8.53125 27.445312 8.507812 27.460938 8.476562 27.476562 Z M 8.476562 27.476562 "/>
<path style=" stroke:none;fill-rule:nonzero;fill:rgb(56.862748%,76.862746%,20.784314%);fill-opacity:1;" d="M 25.011719 27.351562 C 25.007812 27.367188 24.996094 27.382812 24.972656 27.394531 C 24.972656 27.378906 24.988281 27.367188 25.011719 27.351562 Z M 25.011719 27.351562 "/>
<path style=" stroke:none;fill-rule:nonzero;fill:rgb(56.862748%,76.862746%,20.784314%);fill-opacity:1;" d="M 25.054688 27.296875 C 25.058594 27.3125 25.050781 27.332031 25.03125 27.355469 C 25.027344 27.339844 25.035156 27.320312 25.054688 27.296875 Z M 25.054688 27.296875 "/>
<path style=" stroke:none;fill-rule:nonzero;fill:rgb(56.862748%,76.862746%,20.784314%);fill-opacity:1;" d="M 25.179688 27.1875 C 25.175781 27.203125 25.164062 27.214844 25.140625 27.230469 C 25.144531 27.214844 25.15625 27.203125 25.179688 27.1875 Z M 25.179688 27.1875 "/>
<path style=" stroke:none;fill-rule:nonzero;fill:rgb(56.862748%,76.862746%,20.784314%);fill-opacity:1;" d="M 25.125 27.230469 C 25.125 27.238281 25.117188 27.25 25.101562 27.261719 C 25.097656 27.253906 25.105469 27.246094 25.125 27.230469 Z M 25.125 27.230469 "/>
<path style=" stroke:none;fill-rule:nonzero;fill:rgb(56.862748%,76.862746%,20.784314%);fill-opacity:1;" d="M 24.414062 27.921875 C 24.414062 27.925781 24.410156 27.9375 24.402344 27.9375 C 24.398438 27.929688 24.40625 27.921875 24.414062 27.921875 Z M 24.414062 27.921875 "/>
<path style=" stroke:none;fill-rule:nonzero;fill:rgb(56.862748%,76.862746%,20.784314%);fill-opacity:1;" d="M 18.035156 26.886719 C 18.027344 26.890625 18.019531 26.886719 18.003906 26.871094 C 18.011719 26.867188 18.023438 26.875 18.035156 26.886719 Z M 18.035156 26.886719 "/>
<path style=" stroke:none;fill-rule:nonzero;fill:rgb(56.862748%,76.862746%,20.784314%);fill-opacity:1;" d="M 32 27.703125 C 32 27.703125 32.003906 27.707031 32.003906 27.707031 C 32.003906 27.707031 32.007812 27.699219 32.003906 27.699219 C 32 27.699219 32 27.703125 32 27.703125 Z M 32 27.703125 "/>
<path style=" stroke:none;fill-rule:nonzero;fill:rgb(56.862748%,76.862746%,20.784314%);fill-opacity:1;" d="M 31.964844 27.667969 C 31.976562 27.671875 31.984375 27.679688 31.996094 27.695312 C 32 27.703125 32 27.699219 32 27.699219 C 31.992188 27.695312 31.980469 27.6875 31.96875 27.675781 C 31.96875 27.664062 31.96875 27.667969 31.964844 27.667969 Z M 31.964844 27.667969 "/>
<path style=" stroke:none;fill-rule:nonzero;fill:rgb(56.862748%,76.862746%,20.784314%);fill-opacity:1;" d="M 25.257812 27.101562 C 25.269531 27.105469 25.273438 27.113281 25.28125 27.121094 C 25.277344 27.121094 25.269531 27.121094 25.257812 27.121094 C 25.253906 27.117188 25.253906 27.105469 25.257812 27.101562 Z M 25.257812 27.101562 "/>
<path style=" stroke:none;fill-rule:nonzero;fill:rgb(56.862748%,76.862746%,20.784314%);fill-opacity:1;" d="M 25.246094 27.125 C 25.253906 27.132812 25.246094 27.144531 25.234375 27.15625 C 25.226562 27.148438 25.234375 27.136719 25.246094 27.125 Z M 25.246094 27.125 "/>
<path style=" stroke:none;fill-rule:nonzero;fill:rgb(56.862748%,76.862746%,20.784314%);fill-opacity:1;" d="M 25.214844 27.15625 C 25.21875 27.167969 25.214844 27.179688 25.199219 27.191406 C 25.195312 27.179688 25.199219 27.167969 25.214844 27.15625 Z M 25.214844 27.15625 "/>
<path style=" stroke:none;fill-rule:nonzero;fill:rgb(94.901961%,45.09804%,64.313728%);fill-opacity:1;" d="M 25.5 15.332031 C 25.460938 15.46875 25.425781 15.585938 25.386719 15.710938 C 25.238281 15.65625 25.21875 15.59375 25.261719 15.496094 C 25.347656 15.316406 25.289062 15.167969 25.152344 15.035156 C 25.078125 14.96875 25.007812 14.898438 24.941406 14.824219 C 24.902344 14.777344 24.882812 14.71875 24.84375 14.652344 C 24.773438 14.722656 24.683594 14.800781 24.601562 14.882812 C 24.460938 15.023438 24.457031 15.242188 24.589844 15.371094 C 24.722656 15.503906 24.914062 15.496094 25.0625 15.355469 C 25.105469 15.3125 25.148438 15.273438 25.195312 15.226562 C 25.277344 15.488281 25.050781 15.707031 24.773438 15.664062 C 24.550781 15.628906 24.386719 15.507812 24.320312 15.296875 C 24.257812 15.089844 24.28125 14.894531 24.46875 14.742188 C 24.589844 14.644531 24.6875 14.519531 24.808594 14.390625 C 25.035156 14.648438 25.253906 14.882812 25.460938 15.128906 C 25.496094 15.171875 25.488281 15.253906 25.5 15.332031 Z M 25.5 15.332031 "/>
<path style=" stroke:none;fill-rule:nonzero;fill:rgb(94.901961%,45.09804%,64.313728%);fill-opacity:1;" d="M 23.589844 16.304688 C 23.375 15.960938 23.445312 15.648438 23.765625 15.484375 C 23.953125 15.386719 24.140625 15.410156 24.300781 15.527344 C 24.449219 15.636719 24.574219 15.78125 24.71875 15.917969 C 24.664062 15.976562 24.628906 16.015625 24.566406 16.089844 C 24.460938 15.972656 24.367188 15.867188 24.273438 15.761719 C 24.160156 15.632812 23.921875 15.589844 23.808594 15.675781 C 23.644531 15.804688 23.609375 16.003906 23.738281 16.171875 C 23.847656 16.308594 23.976562 16.429688 24.097656 16.558594 C 24.035156 16.683594 23.96875 16.691406 23.878906 16.597656 C 23.789062 16.5 23.691406 16.40625 23.589844 16.304688 Z M 23.589844 16.304688 "/>
<path style=" stroke:none;fill-rule:nonzero;fill:rgb(94.901961%,45.09804%,64.313728%);fill-opacity:1;" d="M 16.761719 23.265625 C 16.789062 23.332031 16.816406 23.394531 16.855469 23.476562 C 16.894531 23.539062 16.921875 23.585938 16.953125 23.632812 C 16.957031 23.648438 16.957031 23.664062 16.964844 23.691406 C 16.804688 23.65625 16.625 23.648438 16.492188 23.5625 C 16.207031 23.386719 16.183594 23.023438 16.40625 22.773438 C 16.425781 22.753906 16.441406 22.734375 16.464844 22.699219 C 16.46875 22.6875 16.484375 22.695312 16.492188 22.710938 C 16.523438 22.769531 16.546875 22.820312 16.570312 22.878906 C 16.601562 22.960938 16.632812 23.03125 16.667969 23.113281 C 16.703125 23.171875 16.730469 23.21875 16.761719 23.265625 Z M 16.761719 23.265625 "/>
<path style=" stroke:none;fill-rule:nonzero;fill:rgb(94.901961%,45.09804%,64.313728%);fill-opacity:1;" d="M 15.628906 23.734375 C 15.5625 23.589844 15.640625 23.515625 15.765625 23.472656 C 15.957031 23.402344 16.132812 23.429688 16.296875 23.546875 C 16.371094 23.601562 16.390625 23.664062 16.3125 23.738281 C 16.195312 23.855469 16.082031 23.972656 15.945312 24.109375 C 15.902344 24.058594 15.871094 24.019531 15.828125 23.96875 C 15.921875 23.867188 16.011719 23.773438 16.113281 23.664062 C 15.964844 23.617188 15.851562 23.613281 15.742188 23.710938 C 15.722656 23.730469 15.683594 23.730469 15.640625 23.738281 C 15.628906 23.734375 15.628906 23.734375 15.628906 23.734375 Z M 15.628906 23.734375 "/>
<path style=" stroke:none;fill-rule:nonzero;fill:rgb(90.196079%,16.078432%,52.941179%);fill-opacity:1;" d="M 23.398438 16.5 C 23.179688 16.429688 22.984375 16.445312 22.835938 16.648438 C 22.75 16.765625 22.632812 16.785156 22.464844 16.753906 C 22.691406 16.570312 22.800781 16.277344 23.125 16.253906 C 23.1875 16.25 23.25 16.277344 23.320312 16.292969 C 23.332031 16.300781 23.347656 16.300781 23.355469 16.3125 C 23.378906 16.382812 23.386719 16.441406 23.398438 16.5 Z M 23.398438 16.5 "/>
<path style=" stroke:none;fill-rule:nonzero;fill:rgb(90.196079%,16.078432%,52.941179%);fill-opacity:1;" d="M 18.210938 18.195312 C 17.683594 17.683594 17.160156 17.164062 16.636719 16.632812 C 16.628906 16.621094 16.628906 16.613281 16.632812 16.605469 C 16.707031 16.660156 16.792969 16.714844 16.863281 16.78125 C 17.265625 17.183594 17.667969 17.585938 18.070312 17.988281 C 18.113281 18.027344 18.164062 18.0625 18.222656 18.101562 C 18.230469 18.128906 18.222656 18.160156 18.210938 18.195312 Z M 18.210938 18.195312 "/>
<path style=" stroke:none;fill-rule:nonzero;fill:rgb(94.901961%,45.09804%,64.313728%);fill-opacity:1;" d="M 23.40625 16.511719 C 23.386719 16.441406 23.378906 16.382812 23.363281 16.3125 C 23.625 16.410156 23.753906 16.667969 23.671875 16.925781 C 23.65625 16.976562 23.636719 17.027344 23.613281 17.089844 C 23.601562 17.097656 23.601562 17.097656 23.597656 17.085938 C 23.566406 16.992188 23.535156 16.910156 23.503906 16.828125 C 23.472656 16.726562 23.441406 16.625 23.40625 16.511719 Z M 23.40625 16.511719 "/>
<path style=" stroke:none;fill-rule:nonzero;fill:rgb(94.901961%,45.09804%,64.313728%);fill-opacity:1;" d="M 25.367188 14.0625 C 25.253906 14.199219 25.144531 14.335938 25.019531 14.488281 C 24.957031 14.425781 24.917969 14.382812 24.894531 14.359375 C 25.019531 14.210938 25.136719 14.070312 25.273438 13.910156 C 25.3125 13.980469 25.332031 14.015625 25.359375 14.058594 C 25.367188 14.0625 25.367188 14.0625 25.367188 14.0625 Z M 25.367188 14.0625 "/>
<path style=" stroke:none;fill-rule:nonzero;fill:rgb(90.196079%,16.078432%,52.941179%);fill-opacity:1;" d="M 22.367188 22.375 C 22.398438 22.402344 22.433594 22.441406 22.464844 22.488281 C 22.464844 22.5 22.464844 22.5 22.464844 22.5 C 22.4375 22.480469 22.414062 22.460938 22.375 22.4375 C 22.367188 22.417969 22.367188 22.402344 22.367188 22.375 Z M 22.367188 22.375 "/>
<path style=" stroke:none;fill-rule:nonzero;fill:rgb(90.196079%,16.078432%,52.941179%);fill-opacity:1;" d="M 23.5 16.839844 C 23.535156 16.910156 23.566406 16.992188 23.597656 17.089844 C 23.5625 17.140625 23.53125 17.1875 23.488281 17.21875 C 23.421875 17.269531 23.347656 17.3125 23.269531 17.363281 C 23.28125 17.4375 23.296875 17.554688 23.308594 17.667969 C 23.292969 17.679688 23.273438 17.691406 23.257812 17.699219 C 23.003906 17.40625 22.75 17.113281 22.515625 16.835938 C 22.578125 16.820312 22.707031 16.800781 22.8125 16.929688 C 22.917969 17.050781 23.03125 17.164062 23.15625 17.296875 C 23.285156 17.128906 23.394531 16.992188 23.5 16.839844 Z M 23.5 16.839844 "/>
<path style=" stroke:none;fill-rule:nonzero;fill:rgb(90.196079%,16.078432%,52.941179%);fill-opacity:1;" d="M 22.636719 22.675781 C 22.667969 22.683594 22.699219 22.699219 22.730469 22.714844 C 22.726562 22.726562 22.71875 22.734375 22.714844 22.746094 C 22.6875 22.726562 22.664062 22.707031 22.636719 22.675781 Z M 22.636719 22.675781 "/>
<path style=" stroke:none;fill-rule:nonzero;fill:rgb(90.196079%,16.078432%,52.941179%);fill-opacity:1;" d="M 23.234375 23.234375 C 23.203125 23.226562 23.175781 23.21875 23.144531 23.210938 C 23.148438 23.199219 23.152344 23.1875 23.15625 23.179688 C 23.179688 23.191406 23.203125 23.203125 23.230469 23.222656 C 23.234375 23.234375 23.234375 23.234375 23.234375 23.234375 Z M 23.234375 23.234375 "/>
<path style=" stroke:none;fill-rule:nonzero;fill:rgb(90.196079%,16.078432%,52.941179%);fill-opacity:1;" d="M 22.832031 22.867188 C 22.855469 22.882812 22.875 22.898438 22.898438 22.921875 C 22.898438 22.933594 22.898438 22.933594 22.898438 22.933594 C 22.878906 22.917969 22.855469 22.902344 22.835938 22.878906 C 22.832031 22.867188 22.832031 22.867188 22.832031 22.867188 Z M 22.832031 22.867188 "/>
<path style=" stroke:none;fill-rule:nonzero;fill:rgb(90.196079%,16.078432%,52.941179%);fill-opacity:1;" d="M 22.898438 22.933594 C 22.925781 22.945312 22.957031 22.953125 22.984375 22.964844 C 22.980469 22.972656 22.976562 22.980469 22.972656 22.988281 C 22.949219 22.976562 22.929688 22.964844 22.902344 22.941406 C 22.898438 22.933594 22.898438 22.933594 22.898438 22.933594 Z M 22.898438 22.933594 "/>
<path style=" stroke:none;fill-rule:nonzero;fill:rgb(90.196079%,16.078432%,52.941179%);fill-opacity:1;" d="M 23.234375 23.234375 C 23.242188 23.246094 23.25 23.257812 23.257812 23.269531 C 23.253906 23.269531 23.25 23.273438 23.246094 23.277344 C 23.242188 23.269531 23.238281 23.257812 23.234375 23.242188 C 23.234375 23.234375 23.234375 23.234375 23.234375 23.234375 Z M 23.234375 23.234375 "/>
<path style=" stroke:none;fill-rule:nonzero;fill:rgb(90.196079%,16.078432%,52.941179%);fill-opacity:1;" d="M 22.832031 22.867188 C 22.828125 22.863281 22.824219 22.855469 22.820312 22.851562 C 22.824219 22.851562 22.828125 22.855469 22.832031 22.863281 C 22.832031 22.867188 22.832031 22.867188 22.832031 22.867188 Z M 22.832031 22.867188 "/>
<path style=" stroke:none;fill-rule:nonzero;fill:rgb(90.196079%,16.078432%,52.941179%);fill-opacity:1;" d="M 22.5 22.535156 C 22.488281 22.53125 22.480469 22.523438 22.46875 22.507812 C 22.464844 22.5 22.464844 22.5 22.46875 22.5 C 22.476562 22.503906 22.488281 22.507812 22.496094 22.527344 C 22.5 22.535156 22.5 22.535156 22.5 22.535156 Z M 22.5 22.535156 "/>
<path style=" stroke:none;fill-rule:nonzero;fill:rgb(90.196079%,16.078432%,52.941179%);fill-opacity:1;" d="M 22.535156 22.566406 C 22.523438 22.5625 22.511719 22.558594 22.503906 22.539062 C 22.5 22.535156 22.5 22.535156 22.5 22.535156 C 22.511719 22.535156 22.519531 22.542969 22.53125 22.558594 C 22.535156 22.566406 22.535156 22.566406 22.535156 22.566406 Z M 22.535156 22.566406 "/>
<path style=" stroke:none;fill-rule:nonzero;fill:rgb(90.196079%,16.078432%,52.941179%);fill-opacity:1;" d="M 22.535156 22.566406 C 22.539062 22.570312 22.542969 22.578125 22.546875 22.582031 C 22.542969 22.578125 22.539062 22.578125 22.535156 22.570312 C 22.535156 22.566406 22.535156 22.566406 22.535156 22.566406 Z M 22.535156 22.566406 "/>
<path style=" stroke:none;fill-rule:nonzero;fill:rgb(90.196079%,16.078432%,52.941179%);fill-opacity:1;" d="M 22.632812 22.660156 C 22.628906 22.660156 22.625 22.65625 22.621094 22.652344 C 22.625 22.652344 22.628906 22.65625 22.632812 22.660156 Z M 22.632812 22.660156 "/>
<path style=" stroke:none;fill-rule:nonzero;fill:rgb(56.862748%,76.862746%,20.784314%);fill-opacity:1;" d="M 25.199219 24.734375 C 25.21875 24.742188 25.234375 24.753906 25.25 24.761719 C 25.246094 24.769531 25.238281 24.777344 25.234375 24.785156 C 25.222656 24.773438 25.210938 24.761719 25.203125 24.742188 C 25.199219 24.734375 25.199219 24.734375 25.199219 24.734375 Z M 25.199219 24.734375 "/>
<path style=" stroke:none;fill-rule:nonzero;fill:rgb(65.490198%,82.352942%,38.431373%);fill-opacity:1;" d="M 13.222656 26.132812 C 13.386719 26.203125 13.539062 26.273438 13.703125 26.363281 C 13.742188 26.390625 13.769531 26.394531 13.800781 26.402344 C 13.859375 26.492188 13.917969 26.582031 13.980469 26.675781 C 13.9375 26.707031 13.894531 26.738281 13.851562 26.765625 C 13.832031 26.785156 13.8125 26.800781 13.796875 26.816406 C 13.695312 26.691406 13.605469 26.5625 13.492188 26.445312 C 13.34375 26.292969 13.203125 26.292969 13.042969 26.429688 C 12.90625 26.546875 12.886719 26.71875 13.003906 26.871094 C 13.09375 26.984375 13.203125 27.078125 13.300781 27.183594 C 13.390625 27.28125 13.390625 27.285156 13.285156 27.382812 C 13.125 27.234375 12.929688 27.109375 12.808594 26.929688 C 12.609375 26.636719 12.78125 26.226562 13.222656 26.132812 Z M 13.222656 26.132812 "/>
<path style=" stroke:none;fill-rule:nonzero;fill:rgb(65.490198%,82.352942%,38.431373%);fill-opacity:1;" d="M 12.703125 27.996094 C 12.640625 27.976562 12.589844 27.949219 12.546875 27.902344 C 12.597656 27.820312 12.632812 27.75 12.6875 27.699219 C 12.796875 27.601562 12.800781 27.46875 12.742188 27.371094 C 12.6875 27.28125 12.582031 27.203125 12.484375 27.171875 C 12.28125 27.113281 12.1875 27.296875 12.050781 27.398438 C 11.996094 27.359375 11.949219 27.328125 11.902344 27.296875 C 11.902344 27.296875 11.898438 27.285156 11.894531 27.277344 C 11.941406 27.226562 11.996094 27.191406 12.039062 27.144531 C 12.253906 26.917969 12.570312 26.902344 12.800781 27.101562 C 13.003906 27.285156 13.023438 27.578125 12.839844 27.816406 C 12.796875 27.875 12.757812 27.933594 12.703125 27.996094 Z M 12.703125 27.996094 "/>
<path style=" stroke:none;fill-rule:nonzero;fill:rgb(65.490198%,82.352942%,38.431373%);fill-opacity:1;" d="M 14.609375 26.402344 C 14.566406 26.363281 14.53125 26.328125 14.5 26.277344 C 14.617188 26.046875 14.605469 25.917969 14.433594 25.753906 C 14.332031 25.652344 14.21875 25.5625 14.117188 25.476562 C 14.195312 25.324219 14.265625 25.296875 14.351562 25.402344 C 14.484375 25.5625 14.628906 25.714844 14.738281 25.890625 C 14.824219 26.035156 14.75 26.28125 14.609375 26.402344 Z M 14.609375 26.402344 "/>
<path style=" stroke:none;fill-rule:nonzero;fill:rgb(65.490198%,82.352942%,38.431373%);fill-opacity:1;" d="M 13.773438 25.992188 C 13.707031 25.980469 13.648438 25.960938 13.578125 25.933594 C 13.515625 25.554688 13.816406 25.378906 14.035156 25.164062 C 14.054688 25.140625 14.140625 25.183594 14.21875 25.199219 C 14.046875 25.480469 13.667969 25.597656 13.773438 25.992188 Z M 13.773438 25.992188 "/>
<path style=" stroke:none;fill-rule:nonzero;fill:rgb(65.490198%,82.352942%,38.431373%);fill-opacity:1;" d="M 15.0625 25.34375 C 15.183594 25.429688 15.199219 25.507812 15.0625 25.605469 C 14.894531 25.4375 14.722656 25.277344 14.5625 25.101562 C 14.539062 25.074219 14.582031 24.992188 14.59375 24.933594 C 14.617188 24.925781 14.640625 24.917969 14.664062 24.910156 C 14.792969 25.050781 14.921875 25.191406 15.0625 25.34375 Z M 15.0625 25.34375 "/>
<path style=" stroke:none;fill-rule:nonzero;fill:rgb(65.490198%,82.352942%,38.431373%);fill-opacity:1;" d="M 14.46875 26.21875 C 14.351562 26.355469 14.257812 26.21875 14.144531 26.199219 C 14.242188 26.117188 14.355469 26.035156 14.503906 25.921875 C 14.488281 26.039062 14.480469 26.121094 14.46875 26.21875 Z M 14.46875 26.21875 "/>
<path style=" stroke:none;fill-rule:nonzero;fill:rgb(90.196079%,16.078432%,52.941179%);fill-opacity:1;" d="M 16.566406 22.867188 C 16.546875 22.820312 16.523438 22.769531 16.5 22.710938 C 16.714844 22.558594 16.941406 22.5625 17.125 22.71875 C 17.160156 22.75 17.191406 22.84375 17.175781 22.863281 C 17.050781 23 16.914062 23.128906 16.773438 23.261719 C 16.730469 23.21875 16.703125 23.171875 16.679688 23.105469 C 16.761719 23.011719 16.835938 22.933594 16.914062 22.855469 C 16.902344 22.832031 16.890625 22.8125 16.878906 22.792969 C 16.777344 22.816406 16.671875 22.84375 16.566406 22.867188 Z M 16.566406 22.867188 "/>
<path style=" stroke:none;fill-rule:nonzero;fill:rgb(90.196079%,16.078432%,52.941179%);fill-opacity:1;" d="M 16.964844 23.632812 C 16.921875 23.585938 16.894531 23.539062 16.863281 23.480469 C 17.011719 23.398438 17.105469 23.296875 17.109375 23.113281 C 17.109375 23.046875 17.1875 22.980469 17.246094 22.894531 C 17.378906 23.238281 17.277344 23.480469 16.964844 23.632812 Z M 16.964844 23.632812 "/>
<path style=" stroke:none;fill-rule:nonzero;fill:rgb(59.607846%,79.215688%,27.058825%);fill-opacity:1;" d="M 12.0625 27.402344 C 12.1875 27.296875 12.28125 27.113281 12.484375 27.171875 C 12.582031 27.203125 12.6875 27.28125 12.742188 27.371094 C 12.800781 27.46875 12.796875 27.601562 12.6875 27.699219 C 12.632812 27.75 12.597656 27.820312 12.546875 27.890625 C 12.386719 27.746094 12.238281 27.59375 12.078125 27.429688 C 12.066406 27.417969 12.0625 27.402344 12.0625 27.402344 Z M 12.0625 27.402344 "/>
<path style=" stroke:none;fill-rule:nonzero;fill:rgb(15.294118%,71.372551%,46.27451%);fill-opacity:1;" d="M 12.414062 27.988281 C 12.535156 28.097656 12.609375 28.210938 12.542969 28.402344 C 12.261719 28.125 11.992188 27.855469 11.710938 27.578125 C 11.898438 27.480469 11.996094 27.574219 12.09375 27.664062 C 12.199219 27.765625 12.300781 27.871094 12.414062 27.988281 Z M 12.414062 27.988281 "/>
<path style=" stroke:none;fill-rule:nonzero;fill:rgb(15.294118%,71.372551%,46.27451%);fill-opacity:1;" d="M 12.050781 27.398438 C 12.0625 27.402344 12.066406 27.417969 12.066406 27.425781 C 11.964844 27.460938 11.867188 27.488281 11.765625 27.519531 C 11.753906 27.5 11.742188 27.480469 11.734375 27.460938 C 11.785156 27.414062 11.835938 27.363281 11.894531 27.304688 C 11.949219 27.328125 11.996094 27.359375 12.050781 27.398438 Z M 12.050781 27.398438 "/>
<path style=" stroke:none;fill-rule:nonzero;fill:rgb(59.607846%,79.215688%,27.058825%);fill-opacity:1;" d="M 8.875 27.199219 C 8.84375 27.15625 8.820312 27.113281 8.796875 27.066406 C 8.808594 27.058594 8.824219 27.046875 8.839844 27.039062 C 8.859375 27.078125 8.882812 27.113281 8.902344 27.164062 C 8.898438 27.1875 8.890625 27.195312 8.875 27.199219 Z M 8.875 27.199219 "/>
<path style=" stroke:none;fill-rule:nonzero;fill:rgb(59.607846%,79.215688%,27.058825%);fill-opacity:1;" d="M 8.609375 27.234375 C 8.613281 27.230469 8.621094 27.230469 8.625 27.234375 C 8.621094 27.234375 8.613281 27.238281 8.609375 27.234375 Z M 8.609375 27.234375 "/>
<path style=" stroke:none;fill-rule:nonzero;fill:rgb(59.607846%,79.215688%,27.058825%);fill-opacity:1;" d="M 31.160156 27.136719 C 31.179688 27.101562 31.203125 27.070312 31.222656 27.035156 C 31.238281 27.046875 31.25 27.058594 31.265625 27.074219 C 31.238281 27.09375 31.210938 27.113281 31.171875 27.136719 C 31.160156 27.140625 31.160156 27.136719 31.160156 27.136719 Z M 31.160156 27.136719 "/>
<path style=" stroke:none;fill-rule:nonzero;fill:rgb(59.607846%,79.215688%,27.058825%);fill-opacity:1;" d="M 31.429688 27.226562 C 31.441406 27.226562 31.449219 27.226562 31.457031 27.230469 C 31.449219 27.238281 31.441406 27.246094 31.429688 27.257812 C 31.429688 27.25 31.425781 27.242188 31.429688 27.226562 Z M 31.429688 27.226562 "/>
<path style=" stroke:none;fill-rule:nonzero;fill:rgb(59.607846%,79.215688%,27.058825%);fill-opacity:1;" d="M 13.792969 26.390625 C 13.769531 26.394531 13.742188 26.390625 13.707031 26.375 C 13.730469 26.371094 13.757812 26.378906 13.792969 26.390625 Z M 13.792969 26.390625 "/>
<path style=" stroke:none;fill-rule:nonzero;fill:rgb(88.627452%,0.784314%,44.705883%);fill-opacity:1;" d="M 16.570312 22.878906 C 16.671875 22.84375 16.777344 22.816406 16.878906 22.792969 C 16.890625 22.8125 16.902344 22.832031 16.914062 22.855469 C 16.835938 22.933594 16.761719 23.011719 16.675781 23.097656 C 16.632812 23.03125 16.601562 22.960938 16.570312 22.878906 Z M 16.570312 22.878906 "/>
</g>
</svg>
